%TF.GenerationSoftware,KiCad,Pcbnew,(6.0.7)*%
%TF.CreationDate,2022-11-03T14:23:06+01:00*%
%TF.ProjectId,opengeiger_ROUND,6f70656e-6765-4696-9765-725f524f554e,rev?*%
%TF.SameCoordinates,Original*%
%TF.FileFunction,Legend,Top*%
%TF.FilePolarity,Positive*%
%FSLAX46Y46*%
G04 Gerber Fmt 4.6, Leading zero omitted, Abs format (unit mm)*
G04 Created by KiCad (PCBNEW (6.0.7)) date 2022-11-03 14:23:06*
%MOMM*%
%LPD*%
G01*
G04 APERTURE LIST*
%ADD10C,0.020000*%
%ADD11C,0.003000*%
%ADD12C,0.200000*%
%ADD13C,0.300000*%
%ADD14C,0.250000*%
%ADD15C,0.150000*%
%ADD16C,0.120000*%
G04 APERTURE END LIST*
D10*
G36*
X191775410Y-100664883D02*
G01*
X191775410Y-101710781D01*
X188773448Y-100556430D01*
X189787754Y-102313237D01*
X186273030Y-101404843D01*
X186622994Y-101922606D01*
X185160590Y-100898616D01*
X185160827Y-100898616D01*
X186803889Y-100608871D01*
X186346690Y-100929017D01*
X188700952Y-101333194D01*
X187681777Y-99568000D01*
X191775410Y-100664883D01*
G37*
X191775410Y-100664883D02*
X191775410Y-101710781D01*
X188773448Y-100556430D01*
X189787754Y-102313237D01*
X186273030Y-101404843D01*
X186622994Y-101922606D01*
X185160590Y-100898616D01*
X185160827Y-100898616D01*
X186803889Y-100608871D01*
X186346690Y-100929017D01*
X188700952Y-101333194D01*
X187681777Y-99568000D01*
X191775410Y-100664883D01*
D11*
G36*
X160667822Y-92163701D02*
G01*
X160700386Y-92210361D01*
X160735306Y-92254852D01*
X160772482Y-92297114D01*
X160811813Y-92337086D01*
X160853200Y-92374707D01*
X160896543Y-92409918D01*
X160941741Y-92442658D01*
X160988695Y-92472867D01*
X161037305Y-92500483D01*
X161087471Y-92525446D01*
X161139092Y-92547697D01*
X161192069Y-92567174D01*
X161246302Y-92583817D01*
X161301690Y-92597566D01*
X161358134Y-92608360D01*
X161415534Y-92616138D01*
X161437553Y-92618387D01*
X161459124Y-92620239D01*
X161468983Y-92620955D01*
X161477819Y-92621496D01*
X161485327Y-92621839D01*
X161491205Y-92621959D01*
X161515018Y-92621959D01*
X161515018Y-94994214D01*
X161409184Y-94990509D01*
X161277023Y-94983471D01*
X161145918Y-94971507D01*
X161015969Y-94954653D01*
X160887277Y-94932946D01*
X160759944Y-94906420D01*
X160634069Y-94875112D01*
X160509754Y-94839056D01*
X160387099Y-94798290D01*
X160266205Y-94752847D01*
X160147173Y-94702765D01*
X160030104Y-94648078D01*
X159915099Y-94588822D01*
X159802257Y-94525034D01*
X159691681Y-94456748D01*
X159583470Y-94384000D01*
X159477726Y-94306826D01*
X159415030Y-94258138D01*
X159353736Y-94208307D01*
X159293830Y-94157318D01*
X159235301Y-94105156D01*
X159178137Y-94051806D01*
X159122324Y-93997254D01*
X159067851Y-93941485D01*
X159014705Y-93884485D01*
X158962874Y-93826238D01*
X158912344Y-93766730D01*
X158863105Y-93705946D01*
X158815143Y-93643871D01*
X158768446Y-93580491D01*
X158723002Y-93515791D01*
X158678798Y-93449756D01*
X158635822Y-93382372D01*
X158626552Y-93367149D01*
X158617921Y-93352664D01*
X158610121Y-93339258D01*
X158603344Y-93327272D01*
X158597783Y-93317048D01*
X158593629Y-93308925D01*
X158592140Y-93305759D01*
X158591075Y-93303246D01*
X158590458Y-93301429D01*
X158590325Y-93300795D01*
X158590313Y-93300351D01*
X159348742Y-92856909D01*
X160608026Y-92129305D01*
X160635014Y-92113959D01*
X160667822Y-92163701D01*
G37*
X160667822Y-92163701D02*
X160700386Y-92210361D01*
X160735306Y-92254852D01*
X160772482Y-92297114D01*
X160811813Y-92337086D01*
X160853200Y-92374707D01*
X160896543Y-92409918D01*
X160941741Y-92442658D01*
X160988695Y-92472867D01*
X161037305Y-92500483D01*
X161087471Y-92525446D01*
X161139092Y-92547697D01*
X161192069Y-92567174D01*
X161246302Y-92583817D01*
X161301690Y-92597566D01*
X161358134Y-92608360D01*
X161415534Y-92616138D01*
X161437553Y-92618387D01*
X161459124Y-92620239D01*
X161468983Y-92620955D01*
X161477819Y-92621496D01*
X161485327Y-92621839D01*
X161491205Y-92621959D01*
X161515018Y-92621959D01*
X161515018Y-94994214D01*
X161409184Y-94990509D01*
X161277023Y-94983471D01*
X161145918Y-94971507D01*
X161015969Y-94954653D01*
X160887277Y-94932946D01*
X160759944Y-94906420D01*
X160634069Y-94875112D01*
X160509754Y-94839056D01*
X160387099Y-94798290D01*
X160266205Y-94752847D01*
X160147173Y-94702765D01*
X160030104Y-94648078D01*
X159915099Y-94588822D01*
X159802257Y-94525034D01*
X159691681Y-94456748D01*
X159583470Y-94384000D01*
X159477726Y-94306826D01*
X159415030Y-94258138D01*
X159353736Y-94208307D01*
X159293830Y-94157318D01*
X159235301Y-94105156D01*
X159178137Y-94051806D01*
X159122324Y-93997254D01*
X159067851Y-93941485D01*
X159014705Y-93884485D01*
X158962874Y-93826238D01*
X158912344Y-93766730D01*
X158863105Y-93705946D01*
X158815143Y-93643871D01*
X158768446Y-93580491D01*
X158723002Y-93515791D01*
X158678798Y-93449756D01*
X158635822Y-93382372D01*
X158626552Y-93367149D01*
X158617921Y-93352664D01*
X158610121Y-93339258D01*
X158603344Y-93327272D01*
X158597783Y-93317048D01*
X158593629Y-93308925D01*
X158592140Y-93305759D01*
X158591075Y-93303246D01*
X158590458Y-93301429D01*
X158590325Y-93300795D01*
X158590313Y-93300351D01*
X159348742Y-92856909D01*
X160608026Y-92129305D01*
X160635014Y-92113959D01*
X160667822Y-92163701D01*
G36*
X161539238Y-90930248D02*
G01*
X161569125Y-90932000D01*
X161598903Y-90935083D01*
X161628529Y-90939495D01*
X161657957Y-90945231D01*
X161687144Y-90952289D01*
X161716044Y-90960663D01*
X161744614Y-90970352D01*
X161772810Y-90981351D01*
X161800586Y-90993656D01*
X161827898Y-91007264D01*
X161854703Y-91022172D01*
X161880956Y-91038375D01*
X161906611Y-91055871D01*
X161931626Y-91074656D01*
X161955955Y-91094725D01*
X161979555Y-91116076D01*
X162002380Y-91138705D01*
X162027093Y-91165845D01*
X162050209Y-91194217D01*
X162071696Y-91223729D01*
X162091520Y-91254287D01*
X162109648Y-91285796D01*
X162126047Y-91318164D01*
X162140683Y-91351296D01*
X162153523Y-91385098D01*
X162164534Y-91419478D01*
X162173682Y-91454340D01*
X162180934Y-91489591D01*
X162186257Y-91525137D01*
X162189617Y-91560885D01*
X162190981Y-91596741D01*
X162190316Y-91632611D01*
X162187588Y-91668401D01*
X162183866Y-91698901D01*
X162179045Y-91728701D01*
X162173117Y-91757819D01*
X162166074Y-91786273D01*
X162157909Y-91814082D01*
X162148614Y-91841265D01*
X162138181Y-91867840D01*
X162126602Y-91893826D01*
X162113870Y-91919241D01*
X162099976Y-91944105D01*
X162084914Y-91968435D01*
X162068675Y-91992251D01*
X162051251Y-92015570D01*
X162032636Y-92038412D01*
X162012820Y-92060796D01*
X161991797Y-92082738D01*
X161969854Y-92103762D01*
X161947470Y-92123577D01*
X161924625Y-92142193D01*
X161901301Y-92159616D01*
X161877478Y-92175855D01*
X161853136Y-92190918D01*
X161828256Y-92204811D01*
X161802818Y-92217544D01*
X161776804Y-92229122D01*
X161750194Y-92239556D01*
X161722968Y-92248851D01*
X161695108Y-92257016D01*
X161666593Y-92264059D01*
X161637405Y-92269987D01*
X161607524Y-92274808D01*
X161576930Y-92278530D01*
X161543873Y-92281139D01*
X161511012Y-92282045D01*
X161478391Y-92281285D01*
X161446059Y-92278895D01*
X161414060Y-92274912D01*
X161382442Y-92269371D01*
X161351251Y-92262311D01*
X161320532Y-92253767D01*
X161290333Y-92243775D01*
X161260700Y-92232373D01*
X161231679Y-92219597D01*
X161203316Y-92205483D01*
X161175657Y-92190069D01*
X161148750Y-92173389D01*
X161122639Y-92155482D01*
X161097373Y-92136383D01*
X161072996Y-92116129D01*
X161049555Y-92094756D01*
X161027097Y-92072302D01*
X161005668Y-92048803D01*
X160985313Y-92024294D01*
X160966081Y-91998813D01*
X160948016Y-91972397D01*
X160931165Y-91945081D01*
X160915574Y-91916902D01*
X160901290Y-91887897D01*
X160888360Y-91858103D01*
X160876828Y-91827555D01*
X160866742Y-91796291D01*
X160858148Y-91764346D01*
X160851093Y-91731758D01*
X160845622Y-91698563D01*
X160842842Y-91675886D01*
X160840849Y-91653208D01*
X160839189Y-91607929D01*
X160840580Y-91562876D01*
X160844960Y-91518200D01*
X160852267Y-91474051D01*
X160862439Y-91430580D01*
X160875414Y-91387936D01*
X160891130Y-91346271D01*
X160909525Y-91305734D01*
X160930536Y-91266476D01*
X160954103Y-91228648D01*
X160980162Y-91192399D01*
X161008653Y-91157880D01*
X161039512Y-91125242D01*
X161072678Y-91094635D01*
X161090106Y-91080140D01*
X161108088Y-91066209D01*
X161134278Y-91047556D01*
X161161024Y-91030287D01*
X161188284Y-91014401D01*
X161216011Y-90999893D01*
X161244163Y-90986760D01*
X161272695Y-90974998D01*
X161301561Y-90964603D01*
X161330719Y-90955572D01*
X161360123Y-90947902D01*
X161389729Y-90941588D01*
X161419493Y-90936628D01*
X161449370Y-90933018D01*
X161479316Y-90930753D01*
X161509287Y-90929831D01*
X161539238Y-90930248D01*
G37*
X161539238Y-90930248D02*
X161569125Y-90932000D01*
X161598903Y-90935083D01*
X161628529Y-90939495D01*
X161657957Y-90945231D01*
X161687144Y-90952289D01*
X161716044Y-90960663D01*
X161744614Y-90970352D01*
X161772810Y-90981351D01*
X161800586Y-90993656D01*
X161827898Y-91007264D01*
X161854703Y-91022172D01*
X161880956Y-91038375D01*
X161906611Y-91055871D01*
X161931626Y-91074656D01*
X161955955Y-91094725D01*
X161979555Y-91116076D01*
X162002380Y-91138705D01*
X162027093Y-91165845D01*
X162050209Y-91194217D01*
X162071696Y-91223729D01*
X162091520Y-91254287D01*
X162109648Y-91285796D01*
X162126047Y-91318164D01*
X162140683Y-91351296D01*
X162153523Y-91385098D01*
X162164534Y-91419478D01*
X162173682Y-91454340D01*
X162180934Y-91489591D01*
X162186257Y-91525137D01*
X162189617Y-91560885D01*
X162190981Y-91596741D01*
X162190316Y-91632611D01*
X162187588Y-91668401D01*
X162183866Y-91698901D01*
X162179045Y-91728701D01*
X162173117Y-91757819D01*
X162166074Y-91786273D01*
X162157909Y-91814082D01*
X162148614Y-91841265D01*
X162138181Y-91867840D01*
X162126602Y-91893826D01*
X162113870Y-91919241D01*
X162099976Y-91944105D01*
X162084914Y-91968435D01*
X162068675Y-91992251D01*
X162051251Y-92015570D01*
X162032636Y-92038412D01*
X162012820Y-92060796D01*
X161991797Y-92082738D01*
X161969854Y-92103762D01*
X161947470Y-92123577D01*
X161924625Y-92142193D01*
X161901301Y-92159616D01*
X161877478Y-92175855D01*
X161853136Y-92190918D01*
X161828256Y-92204811D01*
X161802818Y-92217544D01*
X161776804Y-92229122D01*
X161750194Y-92239556D01*
X161722968Y-92248851D01*
X161695108Y-92257016D01*
X161666593Y-92264059D01*
X161637405Y-92269987D01*
X161607524Y-92274808D01*
X161576930Y-92278530D01*
X161543873Y-92281139D01*
X161511012Y-92282045D01*
X161478391Y-92281285D01*
X161446059Y-92278895D01*
X161414060Y-92274912D01*
X161382442Y-92269371D01*
X161351251Y-92262311D01*
X161320532Y-92253767D01*
X161290333Y-92243775D01*
X161260700Y-92232373D01*
X161231679Y-92219597D01*
X161203316Y-92205483D01*
X161175657Y-92190069D01*
X161148750Y-92173389D01*
X161122639Y-92155482D01*
X161097373Y-92136383D01*
X161072996Y-92116129D01*
X161049555Y-92094756D01*
X161027097Y-92072302D01*
X161005668Y-92048803D01*
X160985313Y-92024294D01*
X160966081Y-91998813D01*
X160948016Y-91972397D01*
X160931165Y-91945081D01*
X160915574Y-91916902D01*
X160901290Y-91887897D01*
X160888360Y-91858103D01*
X160876828Y-91827555D01*
X160866742Y-91796291D01*
X160858148Y-91764346D01*
X160851093Y-91731758D01*
X160845622Y-91698563D01*
X160842842Y-91675886D01*
X160840849Y-91653208D01*
X160839189Y-91607929D01*
X160840580Y-91562876D01*
X160844960Y-91518200D01*
X160852267Y-91474051D01*
X160862439Y-91430580D01*
X160875414Y-91387936D01*
X160891130Y-91346271D01*
X160909525Y-91305734D01*
X160930536Y-91266476D01*
X160954103Y-91228648D01*
X160980162Y-91192399D01*
X161008653Y-91157880D01*
X161039512Y-91125242D01*
X161072678Y-91094635D01*
X161090106Y-91080140D01*
X161108088Y-91066209D01*
X161134278Y-91047556D01*
X161161024Y-91030287D01*
X161188284Y-91014401D01*
X161216011Y-90999893D01*
X161244163Y-90986760D01*
X161272695Y-90974998D01*
X161301561Y-90964603D01*
X161330719Y-90955572D01*
X161360123Y-90947902D01*
X161389729Y-90941588D01*
X161419493Y-90936628D01*
X161449370Y-90933018D01*
X161479316Y-90930753D01*
X161509287Y-90929831D01*
X161539238Y-90930248D01*
G36*
X161515018Y-90589959D02*
G01*
X161491205Y-90589959D01*
X161475075Y-90590414D01*
X161455428Y-90591712D01*
X161433116Y-90593754D01*
X161408986Y-90596442D01*
X161383889Y-90599674D01*
X161358674Y-90603354D01*
X161334190Y-90607380D01*
X161311288Y-90611655D01*
X161262645Y-90622768D01*
X161214611Y-90636417D01*
X161167289Y-90652533D01*
X161120780Y-90671046D01*
X161075186Y-90691887D01*
X161030608Y-90714988D01*
X160987148Y-90740280D01*
X160944907Y-90767693D01*
X160903987Y-90797159D01*
X160864489Y-90828608D01*
X160826515Y-90861972D01*
X160790167Y-90897182D01*
X160755546Y-90934168D01*
X160722753Y-90972862D01*
X160691890Y-91013194D01*
X160663059Y-91055097D01*
X160657399Y-91063576D01*
X160652005Y-91071435D01*
X160646995Y-91078500D01*
X160644671Y-91081681D01*
X160642488Y-91084598D01*
X160640460Y-91087230D01*
X160638601Y-91089555D01*
X160636927Y-91091551D01*
X160635452Y-91093197D01*
X160634191Y-91094471D01*
X160633645Y-91094961D01*
X160633158Y-91095351D01*
X160632732Y-91095636D01*
X160632369Y-91095815D01*
X160632071Y-91095885D01*
X160631838Y-91095843D01*
X158822617Y-90051797D01*
X158731824Y-89998773D01*
X158657452Y-89954629D01*
X158628826Y-89937297D01*
X158607189Y-89923879D01*
X158593502Y-89914938D01*
X158589940Y-89912323D01*
X158588726Y-89911039D01*
X158589389Y-89908573D01*
X158591323Y-89904240D01*
X158598689Y-89890484D01*
X158610185Y-89870799D01*
X158625172Y-89846216D01*
X158663066Y-89786469D01*
X158707259Y-89719480D01*
X158787768Y-89605171D01*
X158872445Y-89494674D01*
X158961171Y-89388083D01*
X159053822Y-89285489D01*
X159150278Y-89186985D01*
X159250417Y-89092663D01*
X159354117Y-89002614D01*
X159461256Y-88916933D01*
X159571712Y-88835710D01*
X159685365Y-88759037D01*
X159802092Y-88687008D01*
X159921771Y-88619715D01*
X160044282Y-88557248D01*
X160169501Y-88499702D01*
X160297308Y-88447168D01*
X160427580Y-88399738D01*
X160545812Y-88361733D01*
X160665209Y-88328268D01*
X160785847Y-88299316D01*
X160907799Y-88274855D01*
X161031140Y-88254858D01*
X161155945Y-88239302D01*
X161282288Y-88228160D01*
X161410243Y-88221410D01*
X161515018Y-88217705D01*
X161515018Y-90589959D01*
G37*
X161515018Y-90589959D02*
X161491205Y-90589959D01*
X161475075Y-90590414D01*
X161455428Y-90591712D01*
X161433116Y-90593754D01*
X161408986Y-90596442D01*
X161383889Y-90599674D01*
X161358674Y-90603354D01*
X161334190Y-90607380D01*
X161311288Y-90611655D01*
X161262645Y-90622768D01*
X161214611Y-90636417D01*
X161167289Y-90652533D01*
X161120780Y-90671046D01*
X161075186Y-90691887D01*
X161030608Y-90714988D01*
X160987148Y-90740280D01*
X160944907Y-90767693D01*
X160903987Y-90797159D01*
X160864489Y-90828608D01*
X160826515Y-90861972D01*
X160790167Y-90897182D01*
X160755546Y-90934168D01*
X160722753Y-90972862D01*
X160691890Y-91013194D01*
X160663059Y-91055097D01*
X160657399Y-91063576D01*
X160652005Y-91071435D01*
X160646995Y-91078500D01*
X160644671Y-91081681D01*
X160642488Y-91084598D01*
X160640460Y-91087230D01*
X160638601Y-91089555D01*
X160636927Y-91091551D01*
X160635452Y-91093197D01*
X160634191Y-91094471D01*
X160633645Y-91094961D01*
X160633158Y-91095351D01*
X160632732Y-91095636D01*
X160632369Y-91095815D01*
X160632071Y-91095885D01*
X160631838Y-91095843D01*
X158822617Y-90051797D01*
X158731824Y-89998773D01*
X158657452Y-89954629D01*
X158628826Y-89937297D01*
X158607189Y-89923879D01*
X158593502Y-89914938D01*
X158589940Y-89912323D01*
X158588726Y-89911039D01*
X158589389Y-89908573D01*
X158591323Y-89904240D01*
X158598689Y-89890484D01*
X158610185Y-89870799D01*
X158625172Y-89846216D01*
X158663066Y-89786469D01*
X158707259Y-89719480D01*
X158787768Y-89605171D01*
X158872445Y-89494674D01*
X158961171Y-89388083D01*
X159053822Y-89285489D01*
X159150278Y-89186985D01*
X159250417Y-89092663D01*
X159354117Y-89002614D01*
X159461256Y-88916933D01*
X159571712Y-88835710D01*
X159685365Y-88759037D01*
X159802092Y-88687008D01*
X159921771Y-88619715D01*
X160044282Y-88557248D01*
X160169501Y-88499702D01*
X160297308Y-88447168D01*
X160427580Y-88399738D01*
X160545812Y-88361733D01*
X160665209Y-88328268D01*
X160785847Y-88299316D01*
X160907799Y-88274855D01*
X161031140Y-88254858D01*
X161155945Y-88239302D01*
X161282288Y-88228160D01*
X161410243Y-88221410D01*
X161515018Y-88217705D01*
X161515018Y-90589959D01*
G36*
X164451364Y-89927972D02*
G01*
X164460120Y-89941859D01*
X164474283Y-89966940D01*
X164512879Y-90039295D01*
X164555246Y-90122267D01*
X164574122Y-90160618D01*
X164589476Y-90193084D01*
X164647859Y-90326825D01*
X164674721Y-90394065D01*
X164700047Y-90461620D01*
X164723851Y-90529540D01*
X164746146Y-90597878D01*
X164766944Y-90666684D01*
X164786260Y-90736009D01*
X164804106Y-90805905D01*
X164820496Y-90876422D01*
X164835442Y-90947613D01*
X164848958Y-91019527D01*
X164871752Y-91165732D01*
X164888984Y-91315447D01*
X164893326Y-91373598D01*
X164896434Y-91444406D01*
X164898314Y-91523611D01*
X164898972Y-91606951D01*
X164898415Y-91690168D01*
X164896649Y-91769000D01*
X164893679Y-91839188D01*
X164889513Y-91896472D01*
X164881219Y-91973063D01*
X164871600Y-92048503D01*
X164860636Y-92122868D01*
X164848304Y-92196236D01*
X164834584Y-92268683D01*
X164819453Y-92340286D01*
X164802889Y-92411122D01*
X164784871Y-92481267D01*
X164765377Y-92550798D01*
X164744386Y-92619792D01*
X164721875Y-92688325D01*
X164697823Y-92756475D01*
X164672209Y-92824318D01*
X164645010Y-92891930D01*
X164616205Y-92959389D01*
X164585772Y-93026772D01*
X164568381Y-93063159D01*
X164548441Y-93103559D01*
X164527273Y-93145434D01*
X164506199Y-93186249D01*
X164486538Y-93223468D01*
X164469612Y-93254553D01*
X164456741Y-93276969D01*
X164452239Y-93284134D01*
X164449247Y-93288180D01*
X164446536Y-93290622D01*
X164429941Y-93284005D01*
X164270984Y-93195642D01*
X162861218Y-92382776D01*
X162395551Y-92113959D01*
X162425713Y-92052576D01*
X162440649Y-92020857D01*
X162454492Y-91988459D01*
X162467226Y-91955457D01*
X162478837Y-91921930D01*
X162489309Y-91887952D01*
X162498630Y-91853602D01*
X162506783Y-91818956D01*
X162513753Y-91784090D01*
X162519527Y-91749082D01*
X162524090Y-91714007D01*
X162527426Y-91678944D01*
X162529521Y-91643968D01*
X162530361Y-91609157D01*
X162529929Y-91574587D01*
X162528213Y-91540334D01*
X162525197Y-91506476D01*
X162522481Y-91483544D01*
X162519295Y-91460786D01*
X162515638Y-91438201D01*
X162511513Y-91415790D01*
X162506920Y-91393553D01*
X162501859Y-91371489D01*
X162496331Y-91349599D01*
X162490338Y-91327882D01*
X162483880Y-91306339D01*
X162476957Y-91284970D01*
X162469571Y-91263774D01*
X162461722Y-91242752D01*
X162453411Y-91221904D01*
X162444638Y-91201229D01*
X162435406Y-91180728D01*
X162425713Y-91160401D01*
X162395022Y-91097959D01*
X162429947Y-91077851D01*
X163453884Y-90486772D01*
X164442367Y-89916330D01*
X164451364Y-89927972D01*
G37*
X164451364Y-89927972D02*
X164460120Y-89941859D01*
X164474283Y-89966940D01*
X164512879Y-90039295D01*
X164555246Y-90122267D01*
X164574122Y-90160618D01*
X164589476Y-90193084D01*
X164647859Y-90326825D01*
X164674721Y-90394065D01*
X164700047Y-90461620D01*
X164723851Y-90529540D01*
X164746146Y-90597878D01*
X164766944Y-90666684D01*
X164786260Y-90736009D01*
X164804106Y-90805905D01*
X164820496Y-90876422D01*
X164835442Y-90947613D01*
X164848958Y-91019527D01*
X164871752Y-91165732D01*
X164888984Y-91315447D01*
X164893326Y-91373598D01*
X164896434Y-91444406D01*
X164898314Y-91523611D01*
X164898972Y-91606951D01*
X164898415Y-91690168D01*
X164896649Y-91769000D01*
X164893679Y-91839188D01*
X164889513Y-91896472D01*
X164881219Y-91973063D01*
X164871600Y-92048503D01*
X164860636Y-92122868D01*
X164848304Y-92196236D01*
X164834584Y-92268683D01*
X164819453Y-92340286D01*
X164802889Y-92411122D01*
X164784871Y-92481267D01*
X164765377Y-92550798D01*
X164744386Y-92619792D01*
X164721875Y-92688325D01*
X164697823Y-92756475D01*
X164672209Y-92824318D01*
X164645010Y-92891930D01*
X164616205Y-92959389D01*
X164585772Y-93026772D01*
X164568381Y-93063159D01*
X164548441Y-93103559D01*
X164527273Y-93145434D01*
X164506199Y-93186249D01*
X164486538Y-93223468D01*
X164469612Y-93254553D01*
X164456741Y-93276969D01*
X164452239Y-93284134D01*
X164449247Y-93288180D01*
X164446536Y-93290622D01*
X164429941Y-93284005D01*
X164270984Y-93195642D01*
X162861218Y-92382776D01*
X162395551Y-92113959D01*
X162425713Y-92052576D01*
X162440649Y-92020857D01*
X162454492Y-91988459D01*
X162467226Y-91955457D01*
X162478837Y-91921930D01*
X162489309Y-91887952D01*
X162498630Y-91853602D01*
X162506783Y-91818956D01*
X162513753Y-91784090D01*
X162519527Y-91749082D01*
X162524090Y-91714007D01*
X162527426Y-91678944D01*
X162529521Y-91643968D01*
X162530361Y-91609157D01*
X162529929Y-91574587D01*
X162528213Y-91540334D01*
X162525197Y-91506476D01*
X162522481Y-91483544D01*
X162519295Y-91460786D01*
X162515638Y-91438201D01*
X162511513Y-91415790D01*
X162506920Y-91393553D01*
X162501859Y-91371489D01*
X162496331Y-91349599D01*
X162490338Y-91327882D01*
X162483880Y-91306339D01*
X162476957Y-91284970D01*
X162469571Y-91263774D01*
X162461722Y-91242752D01*
X162453411Y-91221904D01*
X162444638Y-91201229D01*
X162435406Y-91180728D01*
X162425713Y-91160401D01*
X162395022Y-91097959D01*
X162429947Y-91077851D01*
X163453884Y-90486772D01*
X164442367Y-89916330D01*
X164451364Y-89927972D01*
D10*
G36*
X192078971Y-85183689D02*
G01*
X192078971Y-86229587D01*
X189077009Y-85075236D01*
X190091315Y-86832043D01*
X186576591Y-85923649D01*
X186926555Y-86441412D01*
X185464151Y-85417422D01*
X185464388Y-85417422D01*
X187107450Y-85127677D01*
X186650251Y-85447823D01*
X189004513Y-85852000D01*
X187985338Y-84086806D01*
X192078971Y-85183689D01*
G37*
X192078971Y-85183689D02*
X192078971Y-86229587D01*
X189077009Y-85075236D01*
X190091315Y-86832043D01*
X186576591Y-85923649D01*
X186926555Y-86441412D01*
X185464151Y-85417422D01*
X185464388Y-85417422D01*
X187107450Y-85127677D01*
X186650251Y-85447823D01*
X189004513Y-85852000D01*
X187985338Y-84086806D01*
X192078971Y-85183689D01*
D12*
X127573161Y-79846514D02*
X127954114Y-79846514D01*
X127716019Y-79513180D02*
X127716019Y-80370323D01*
X127763638Y-80465561D01*
X127858876Y-80513180D01*
X127954114Y-80513180D01*
X128192209Y-80513180D02*
X128716019Y-79846514D01*
X128192209Y-79846514D02*
X128716019Y-80513180D01*
D13*
X160401142Y-106184000D02*
X160258285Y-106112571D01*
X160044000Y-106112571D01*
X159829714Y-106184000D01*
X159686857Y-106326857D01*
X159615428Y-106469714D01*
X159544000Y-106755428D01*
X159544000Y-106969714D01*
X159615428Y-107255428D01*
X159686857Y-107398285D01*
X159829714Y-107541142D01*
X160044000Y-107612571D01*
X160186857Y-107612571D01*
X160401142Y-107541142D01*
X160472571Y-107469714D01*
X160472571Y-106969714D01*
X160186857Y-106969714D01*
X161115428Y-107612571D02*
X161115428Y-106112571D01*
X161972571Y-107612571D01*
X161972571Y-106112571D01*
X162686857Y-107612571D02*
X162686857Y-106112571D01*
X163044000Y-106112571D01*
X163258285Y-106184000D01*
X163401142Y-106326857D01*
X163472571Y-106469714D01*
X163544000Y-106755428D01*
X163544000Y-106969714D01*
X163472571Y-107255428D01*
X163401142Y-107398285D01*
X163258285Y-107541142D01*
X163044000Y-107612571D01*
X162686857Y-107612571D01*
D12*
X162447314Y-86694876D02*
X163256838Y-86694876D01*
X163352076Y-86742495D01*
X163399695Y-86790114D01*
X163447314Y-86885352D01*
X163447314Y-87028209D01*
X163399695Y-87123447D01*
X163066361Y-86694876D02*
X163113980Y-86790114D01*
X163113980Y-86980590D01*
X163066361Y-87075828D01*
X163018742Y-87123447D01*
X162923504Y-87171066D01*
X162637790Y-87171066D01*
X162542552Y-87123447D01*
X162494933Y-87075828D01*
X162447314Y-86980590D01*
X162447314Y-86790114D01*
X162494933Y-86694876D01*
X162447314Y-86218685D02*
X163113980Y-86218685D01*
X162542552Y-86218685D02*
X162494933Y-86171066D01*
X162447314Y-86075828D01*
X162447314Y-85932971D01*
X162494933Y-85837733D01*
X162590171Y-85790114D01*
X163113980Y-85790114D01*
X163113980Y-84885352D02*
X162113980Y-84885352D01*
X163066361Y-84885352D02*
X163113980Y-84980590D01*
X163113980Y-85171066D01*
X163066361Y-85266304D01*
X163018742Y-85313923D01*
X162923504Y-85361542D01*
X162637790Y-85361542D01*
X162542552Y-85313923D01*
X162494933Y-85266304D01*
X162447314Y-85171066D01*
X162447314Y-84980590D01*
X162494933Y-84885352D01*
X157278438Y-79410038D02*
X157230819Y-79505276D01*
X157230819Y-79695752D01*
X157278438Y-79790990D01*
X157373676Y-79838609D01*
X157421295Y-79838609D01*
X157516533Y-79790990D01*
X157564152Y-79695752D01*
X157564152Y-79552895D01*
X157611771Y-79457657D01*
X157707009Y-79410038D01*
X157754628Y-79410038D01*
X157849866Y-79457657D01*
X157897485Y-79552895D01*
X157897485Y-79695752D01*
X157849866Y-79790990D01*
X157278438Y-80695752D02*
X157230819Y-80600514D01*
X157230819Y-80410038D01*
X157278438Y-80314800D01*
X157326057Y-80267180D01*
X157421295Y-80219561D01*
X157707009Y-80219561D01*
X157802247Y-80267180D01*
X157849866Y-80314800D01*
X157897485Y-80410038D01*
X157897485Y-80600514D01*
X157849866Y-80695752D01*
X157230819Y-81267180D02*
X157278438Y-81171942D01*
X157373676Y-81124323D01*
X158230819Y-81124323D01*
D13*
X186149966Y-117240307D02*
X184649966Y-117240307D01*
X185364252Y-117240307D02*
X185364252Y-116383164D01*
X186149966Y-116383164D02*
X184649966Y-116383164D01*
X184649966Y-115883164D02*
X186149966Y-115383164D01*
X184649966Y-114883164D01*
X185578537Y-114383164D02*
X185578537Y-113240307D01*
X186078537Y-112597449D02*
X186149966Y-112383164D01*
X186149966Y-112026021D01*
X186078537Y-111883164D01*
X186007109Y-111811735D01*
X185864252Y-111740307D01*
X185721395Y-111740307D01*
X185578537Y-111811735D01*
X185507109Y-111883164D01*
X185435680Y-112026021D01*
X185364252Y-112311735D01*
X185292823Y-112454592D01*
X185221395Y-112526021D01*
X185078537Y-112597449D01*
X184935680Y-112597449D01*
X184792823Y-112526021D01*
X184721395Y-112454592D01*
X184649966Y-112311735D01*
X184649966Y-111954592D01*
X184721395Y-111740307D01*
X186149966Y-111097449D02*
X184649966Y-111097449D01*
X186149966Y-110383164D02*
X184649966Y-110383164D01*
X184649966Y-110026021D01*
X184721395Y-109811735D01*
X184864252Y-109668878D01*
X185007109Y-109597449D01*
X185292823Y-109526021D01*
X185507109Y-109526021D01*
X185792823Y-109597449D01*
X185935680Y-109668878D01*
X186078537Y-109811735D01*
X186149966Y-110026021D01*
X186149966Y-110383164D01*
X185364252Y-108883164D02*
X185364252Y-108383164D01*
X186149966Y-108168878D02*
X186149966Y-108883164D01*
X184649966Y-108883164D01*
X184649966Y-108168878D01*
D12*
X137739523Y-79541714D02*
X137739523Y-80351238D01*
X137691904Y-80446476D01*
X137644285Y-80494095D01*
X137549047Y-80541714D01*
X137406190Y-80541714D01*
X137310952Y-80494095D01*
X137739523Y-80160761D02*
X137644285Y-80208380D01*
X137453809Y-80208380D01*
X137358571Y-80160761D01*
X137310952Y-80113142D01*
X137263333Y-80017904D01*
X137263333Y-79732190D01*
X137310952Y-79636952D01*
X137358571Y-79589333D01*
X137453809Y-79541714D01*
X137644285Y-79541714D01*
X137739523Y-79589333D01*
X138215714Y-79541714D02*
X138215714Y-80208380D01*
X138215714Y-79636952D02*
X138263333Y-79589333D01*
X138358571Y-79541714D01*
X138501428Y-79541714D01*
X138596666Y-79589333D01*
X138644285Y-79684571D01*
X138644285Y-80208380D01*
X139549047Y-80208380D02*
X139549047Y-79208380D01*
X139549047Y-80160761D02*
X139453809Y-80208380D01*
X139263333Y-80208380D01*
X139168095Y-80160761D01*
X139120476Y-80113142D01*
X139072857Y-80017904D01*
X139072857Y-79732190D01*
X139120476Y-79636952D01*
X139168095Y-79589333D01*
X139263333Y-79541714D01*
X139453809Y-79541714D01*
X139549047Y-79589333D01*
X150255314Y-88799752D02*
X151064838Y-88799752D01*
X151160076Y-88847371D01*
X151207695Y-88894990D01*
X151255314Y-88990228D01*
X151255314Y-89133085D01*
X151207695Y-89228323D01*
X150874361Y-88799752D02*
X150921980Y-88894990D01*
X150921980Y-89085466D01*
X150874361Y-89180704D01*
X150826742Y-89228323D01*
X150731504Y-89275942D01*
X150445790Y-89275942D01*
X150350552Y-89228323D01*
X150302933Y-89180704D01*
X150255314Y-89085466D01*
X150255314Y-88894990D01*
X150302933Y-88799752D01*
X150255314Y-88323561D02*
X151255314Y-88323561D01*
X150302933Y-88323561D02*
X150255314Y-88228323D01*
X150255314Y-88037847D01*
X150302933Y-87942609D01*
X150350552Y-87894990D01*
X150445790Y-87847371D01*
X150731504Y-87847371D01*
X150826742Y-87894990D01*
X150874361Y-87942609D01*
X150921980Y-88037847D01*
X150921980Y-88228323D01*
X150874361Y-88323561D01*
X150921980Y-87418800D02*
X150255314Y-87418800D01*
X149921980Y-87418800D02*
X149969600Y-87466419D01*
X150017219Y-87418800D01*
X149969600Y-87371180D01*
X149921980Y-87418800D01*
X150017219Y-87418800D01*
X150921980Y-86799752D02*
X150874361Y-86894990D01*
X150826742Y-86942609D01*
X150731504Y-86990228D01*
X150445790Y-86990228D01*
X150350552Y-86942609D01*
X150302933Y-86894990D01*
X150255314Y-86799752D01*
X150255314Y-86656895D01*
X150302933Y-86561657D01*
X150350552Y-86514038D01*
X150445790Y-86466419D01*
X150731504Y-86466419D01*
X150826742Y-86514038D01*
X150874361Y-86561657D01*
X150921980Y-86656895D01*
X150921980Y-86799752D01*
X149921980Y-86133085D02*
X149921980Y-85514038D01*
X150302933Y-85847371D01*
X150302933Y-85704514D01*
X150350552Y-85609276D01*
X150398171Y-85561657D01*
X150493409Y-85514038D01*
X150731504Y-85514038D01*
X150826742Y-85561657D01*
X150874361Y-85609276D01*
X150921980Y-85704514D01*
X150921980Y-85990228D01*
X150874361Y-86085466D01*
X150826742Y-86133085D01*
X150255314Y-84656895D02*
X150921980Y-84656895D01*
X149874361Y-84894990D02*
X150588647Y-85133085D01*
X150588647Y-84514038D01*
D13*
X138545428Y-107287142D02*
X138759714Y-107358571D01*
X139116857Y-107358571D01*
X139259714Y-107287142D01*
X139331142Y-107215714D01*
X139402571Y-107072857D01*
X139402571Y-106930000D01*
X139331142Y-106787142D01*
X139259714Y-106715714D01*
X139116857Y-106644285D01*
X138831142Y-106572857D01*
X138688285Y-106501428D01*
X138616857Y-106430000D01*
X138545428Y-106287142D01*
X138545428Y-106144285D01*
X138616857Y-106001428D01*
X138688285Y-105930000D01*
X138831142Y-105858571D01*
X139188285Y-105858571D01*
X139402571Y-105930000D01*
X140045428Y-107358571D02*
X140045428Y-105858571D01*
X140616857Y-105858571D01*
X140759714Y-105930000D01*
X140831142Y-106001428D01*
X140902571Y-106144285D01*
X140902571Y-106358571D01*
X140831142Y-106501428D01*
X140759714Y-106572857D01*
X140616857Y-106644285D01*
X140045428Y-106644285D01*
X141545428Y-107358571D02*
X141545428Y-105858571D01*
X142402571Y-107358571D02*
X141759714Y-106501428D01*
X142402571Y-105858571D02*
X141545428Y-106715714D01*
X143902571Y-107358571D02*
X143402571Y-106644285D01*
X143045428Y-107358571D02*
X143045428Y-105858571D01*
X143616857Y-105858571D01*
X143759714Y-105930000D01*
X143831142Y-106001428D01*
X143902571Y-106144285D01*
X143902571Y-106358571D01*
X143831142Y-106501428D01*
X143759714Y-106572857D01*
X143616857Y-106644285D01*
X143045428Y-106644285D01*
D12*
X160488285Y-79321161D02*
X159821619Y-79559257D01*
X160488285Y-79797352D01*
X159869238Y-80606876D02*
X159821619Y-80511638D01*
X159821619Y-80321161D01*
X159869238Y-80225923D01*
X159916857Y-80178304D01*
X160012095Y-80130685D01*
X160297809Y-80130685D01*
X160393047Y-80178304D01*
X160440666Y-80225923D01*
X160488285Y-80321161D01*
X160488285Y-80511638D01*
X160440666Y-80606876D01*
X159869238Y-81464019D02*
X159821619Y-81368780D01*
X159821619Y-81178304D01*
X159869238Y-81083066D01*
X159916857Y-81035447D01*
X160012095Y-80987828D01*
X160297809Y-80987828D01*
X160393047Y-81035447D01*
X160440666Y-81083066D01*
X160488285Y-81178304D01*
X160488285Y-81368780D01*
X160440666Y-81464019D01*
D13*
X154352857Y-105858571D02*
X155281428Y-105858571D01*
X154781428Y-106430000D01*
X154995714Y-106430000D01*
X155138571Y-106501428D01*
X155210000Y-106572857D01*
X155281428Y-106715714D01*
X155281428Y-107072857D01*
X155210000Y-107215714D01*
X155138571Y-107287142D01*
X154995714Y-107358571D01*
X154567142Y-107358571D01*
X154424285Y-107287142D01*
X154352857Y-107215714D01*
X155710000Y-105858571D02*
X156210000Y-107358571D01*
X156710000Y-105858571D01*
X157067142Y-105858571D02*
X157995714Y-105858571D01*
X157495714Y-106430000D01*
X157710000Y-106430000D01*
X157852857Y-106501428D01*
X157924285Y-106572857D01*
X157995714Y-106715714D01*
X157995714Y-107072857D01*
X157924285Y-107215714D01*
X157852857Y-107287142D01*
X157710000Y-107358571D01*
X157281428Y-107358571D01*
X157138571Y-107287142D01*
X157067142Y-107215714D01*
D12*
X142584514Y-86440876D02*
X143394038Y-86440876D01*
X143489276Y-86488495D01*
X143536895Y-86536114D01*
X143584514Y-86631352D01*
X143584514Y-86774209D01*
X143536895Y-86869447D01*
X143203561Y-86440876D02*
X143251180Y-86536114D01*
X143251180Y-86726590D01*
X143203561Y-86821828D01*
X143155942Y-86869447D01*
X143060704Y-86917066D01*
X142774990Y-86917066D01*
X142679752Y-86869447D01*
X142632133Y-86821828D01*
X142584514Y-86726590D01*
X142584514Y-86536114D01*
X142632133Y-86440876D01*
X142584514Y-85964685D02*
X143251180Y-85964685D01*
X142679752Y-85964685D02*
X142632133Y-85917066D01*
X142584514Y-85821828D01*
X142584514Y-85678971D01*
X142632133Y-85583733D01*
X142727371Y-85536114D01*
X143251180Y-85536114D01*
X143251180Y-84631352D02*
X142251180Y-84631352D01*
X143203561Y-84631352D02*
X143251180Y-84726590D01*
X143251180Y-84917066D01*
X143203561Y-85012304D01*
X143155942Y-85059923D01*
X143060704Y-85107542D01*
X142774990Y-85107542D01*
X142679752Y-85059923D01*
X142632133Y-85012304D01*
X142584514Y-84917066D01*
X142584514Y-84726590D01*
X142632133Y-84631352D01*
X147512114Y-88679161D02*
X148321638Y-88679161D01*
X148416876Y-88726780D01*
X148464495Y-88774400D01*
X148512114Y-88869638D01*
X148512114Y-89012495D01*
X148464495Y-89107733D01*
X148131161Y-88679161D02*
X148178780Y-88774400D01*
X148178780Y-88964876D01*
X148131161Y-89060114D01*
X148083542Y-89107733D01*
X147988304Y-89155352D01*
X147702590Y-89155352D01*
X147607352Y-89107733D01*
X147559733Y-89060114D01*
X147512114Y-88964876D01*
X147512114Y-88774400D01*
X147559733Y-88679161D01*
X147512114Y-88202971D02*
X148512114Y-88202971D01*
X147559733Y-88202971D02*
X147512114Y-88107733D01*
X147512114Y-87917257D01*
X147559733Y-87822019D01*
X147607352Y-87774400D01*
X147702590Y-87726780D01*
X147988304Y-87726780D01*
X148083542Y-87774400D01*
X148131161Y-87822019D01*
X148178780Y-87917257D01*
X148178780Y-88107733D01*
X148131161Y-88202971D01*
X148178780Y-87298209D02*
X147512114Y-87298209D01*
X147178780Y-87298209D02*
X147226400Y-87345828D01*
X147274019Y-87298209D01*
X147226400Y-87250590D01*
X147178780Y-87298209D01*
X147274019Y-87298209D01*
X148178780Y-86679161D02*
X148131161Y-86774400D01*
X148083542Y-86822019D01*
X147988304Y-86869638D01*
X147702590Y-86869638D01*
X147607352Y-86822019D01*
X147559733Y-86774400D01*
X147512114Y-86679161D01*
X147512114Y-86536304D01*
X147559733Y-86441066D01*
X147607352Y-86393447D01*
X147702590Y-86345828D01*
X147988304Y-86345828D01*
X148083542Y-86393447D01*
X148131161Y-86441066D01*
X148178780Y-86536304D01*
X148178780Y-86679161D01*
X147274019Y-85964876D02*
X147226400Y-85917257D01*
X147178780Y-85822019D01*
X147178780Y-85583923D01*
X147226400Y-85488685D01*
X147274019Y-85441066D01*
X147369257Y-85393447D01*
X147464495Y-85393447D01*
X147607352Y-85441066D01*
X148178780Y-86012495D01*
X148178780Y-85393447D01*
X132254761Y-79795714D02*
X132492857Y-80462380D01*
X132730952Y-79795714D01*
X133540476Y-80414761D02*
X133445238Y-80462380D01*
X133254761Y-80462380D01*
X133159523Y-80414761D01*
X133111904Y-80367142D01*
X133064285Y-80271904D01*
X133064285Y-79986190D01*
X133111904Y-79890952D01*
X133159523Y-79843333D01*
X133254761Y-79795714D01*
X133445238Y-79795714D01*
X133540476Y-79843333D01*
X134397619Y-80414761D02*
X134302380Y-80462380D01*
X134111904Y-80462380D01*
X134016666Y-80414761D01*
X133969047Y-80367142D01*
X133921428Y-80271904D01*
X133921428Y-79986190D01*
X133969047Y-79890952D01*
X134016666Y-79843333D01*
X134111904Y-79795714D01*
X134302380Y-79795714D01*
X134397619Y-79843333D01*
D13*
X132160952Y-91297142D02*
X132827619Y-91297142D01*
X133113333Y-92344761D02*
X132160952Y-92344761D01*
X132160952Y-90344761D01*
X133113333Y-90344761D01*
X133970476Y-92344761D02*
X133970476Y-90344761D01*
X134922857Y-92344761D02*
X134922857Y-90344761D01*
X136065714Y-92344761D02*
X135208571Y-91201904D01*
X136065714Y-90344761D02*
X134922857Y-91487619D01*
X137970476Y-90440000D02*
X137780000Y-90344761D01*
X137494285Y-90344761D01*
X137208571Y-90440000D01*
X137018095Y-90630476D01*
X136922857Y-90820952D01*
X136827619Y-91201904D01*
X136827619Y-91487619D01*
X136922857Y-91868571D01*
X137018095Y-92059047D01*
X137208571Y-92249523D01*
X137494285Y-92344761D01*
X137684761Y-92344761D01*
X137970476Y-92249523D01*
X138065714Y-92154285D01*
X138065714Y-91487619D01*
X137684761Y-91487619D01*
X138922857Y-91297142D02*
X139589523Y-91297142D01*
X139875238Y-92344761D02*
X138922857Y-92344761D01*
X138922857Y-90344761D01*
X139875238Y-90344761D01*
X140732380Y-92344761D02*
X140732380Y-90344761D01*
X142732380Y-90440000D02*
X142541904Y-90344761D01*
X142256190Y-90344761D01*
X141970476Y-90440000D01*
X141780000Y-90630476D01*
X141684761Y-90820952D01*
X141589523Y-91201904D01*
X141589523Y-91487619D01*
X141684761Y-91868571D01*
X141780000Y-92059047D01*
X141970476Y-92249523D01*
X142256190Y-92344761D01*
X142446666Y-92344761D01*
X142732380Y-92249523D01*
X142827619Y-92154285D01*
X142827619Y-91487619D01*
X142446666Y-91487619D01*
X143684761Y-91297142D02*
X144351428Y-91297142D01*
X144637142Y-92344761D02*
X143684761Y-92344761D01*
X143684761Y-90344761D01*
X144637142Y-90344761D01*
X146637142Y-92344761D02*
X145970476Y-91392380D01*
X145494285Y-92344761D02*
X145494285Y-90344761D01*
X146256190Y-90344761D01*
X146446666Y-90440000D01*
X146541904Y-90535238D01*
X146637142Y-90725714D01*
X146637142Y-91011428D01*
X146541904Y-91201904D01*
X146446666Y-91297142D01*
X146256190Y-91392380D01*
X145494285Y-91392380D01*
X148732380Y-90344761D02*
X149399047Y-92344761D01*
X150065714Y-90344761D01*
X151113333Y-90344761D02*
X151303809Y-90344761D01*
X151494285Y-90440000D01*
X151589523Y-90535238D01*
X151684761Y-90725714D01*
X151780000Y-91106666D01*
X151780000Y-91582857D01*
X151684761Y-91963809D01*
X151589523Y-92154285D01*
X151494285Y-92249523D01*
X151303809Y-92344761D01*
X151113333Y-92344761D01*
X150922857Y-92249523D01*
X150827619Y-92154285D01*
X150732380Y-91963809D01*
X150637142Y-91582857D01*
X150637142Y-91106666D01*
X150732380Y-90725714D01*
X150827619Y-90535238D01*
X150922857Y-90440000D01*
X151113333Y-90344761D01*
X152637142Y-92154285D02*
X152732380Y-92249523D01*
X152637142Y-92344761D01*
X152541904Y-92249523D01*
X152637142Y-92154285D01*
X152637142Y-92344761D01*
X154637142Y-92344761D02*
X153494285Y-92344761D01*
X154065714Y-92344761D02*
X154065714Y-90344761D01*
X153875238Y-90630476D01*
X153684761Y-90820952D01*
X153494285Y-90916190D01*
X155494285Y-92154285D02*
X155589523Y-92249523D01*
X155494285Y-92344761D01*
X155399047Y-92249523D01*
X155494285Y-92154285D01*
X155494285Y-92344761D01*
X156827619Y-90344761D02*
X157018095Y-90344761D01*
X157208571Y-90440000D01*
X157303809Y-90535238D01*
X157399047Y-90725714D01*
X157494285Y-91106666D01*
X157494285Y-91582857D01*
X157399047Y-91963809D01*
X157303809Y-92154285D01*
X157208571Y-92249523D01*
X157018095Y-92344761D01*
X156827619Y-92344761D01*
X156637142Y-92249523D01*
X156541904Y-92154285D01*
X156446666Y-91963809D01*
X156351428Y-91582857D01*
X156351428Y-91106666D01*
X156446666Y-90725714D01*
X156541904Y-90535238D01*
X156637142Y-90440000D01*
X156827619Y-90344761D01*
X150241142Y-105930000D02*
X150098285Y-105858571D01*
X149884000Y-105858571D01*
X149669714Y-105930000D01*
X149526857Y-106072857D01*
X149455428Y-106215714D01*
X149384000Y-106501428D01*
X149384000Y-106715714D01*
X149455428Y-107001428D01*
X149526857Y-107144285D01*
X149669714Y-107287142D01*
X149884000Y-107358571D01*
X150026857Y-107358571D01*
X150241142Y-107287142D01*
X150312571Y-107215714D01*
X150312571Y-106715714D01*
X150026857Y-106715714D01*
X150955428Y-107358571D02*
X150955428Y-105858571D01*
X151812571Y-107358571D01*
X151812571Y-105858571D01*
X152526857Y-107358571D02*
X152526857Y-105858571D01*
X152884000Y-105858571D01*
X153098285Y-105930000D01*
X153241142Y-106072857D01*
X153312571Y-106215714D01*
X153384000Y-106501428D01*
X153384000Y-106715714D01*
X153312571Y-107001428D01*
X153241142Y-107144285D01*
X153098285Y-107287142D01*
X152884000Y-107358571D01*
X152526857Y-107358571D01*
D12*
X150721961Y-81586247D02*
X150769580Y-81491009D01*
X150769580Y-81300533D01*
X150721961Y-81205295D01*
X150626723Y-81157676D01*
X150579104Y-81157676D01*
X150483866Y-81205295D01*
X150436247Y-81300533D01*
X150436247Y-81443390D01*
X150388628Y-81538628D01*
X150293390Y-81586247D01*
X150245771Y-81586247D01*
X150150533Y-81538628D01*
X150102914Y-81443390D01*
X150102914Y-81300533D01*
X150150533Y-81205295D01*
X150769580Y-80300533D02*
X149769580Y-80300533D01*
X150721961Y-80300533D02*
X150769580Y-80395771D01*
X150769580Y-80586247D01*
X150721961Y-80681485D01*
X150674342Y-80729104D01*
X150579104Y-80776723D01*
X150293390Y-80776723D01*
X150198152Y-80729104D01*
X150150533Y-80681485D01*
X150102914Y-80586247D01*
X150102914Y-80395771D01*
X150150533Y-80300533D01*
X150769580Y-79395771D02*
X150245771Y-79395771D01*
X150150533Y-79443390D01*
X150102914Y-79538628D01*
X150102914Y-79729104D01*
X150150533Y-79824342D01*
X150721961Y-79395771D02*
X150769580Y-79491009D01*
X150769580Y-79729104D01*
X150721961Y-79824342D01*
X150626723Y-79871961D01*
X150531485Y-79871961D01*
X150436247Y-79824342D01*
X150388628Y-79729104D01*
X150388628Y-79491009D01*
X150341009Y-79395771D01*
X130232209Y-80513180D02*
X130232209Y-79846514D01*
X130232209Y-80036990D02*
X130279828Y-79941752D01*
X130327447Y-79894133D01*
X130422685Y-79846514D01*
X130517923Y-79846514D01*
X130756019Y-80513180D02*
X131279828Y-79846514D01*
X130756019Y-79846514D02*
X131279828Y-80513180D01*
X145073714Y-86794838D02*
X145740380Y-86556742D01*
X145073714Y-86318647D01*
X145692761Y-85509123D02*
X145740380Y-85604361D01*
X145740380Y-85794838D01*
X145692761Y-85890076D01*
X145645142Y-85937695D01*
X145549904Y-85985314D01*
X145264190Y-85985314D01*
X145168952Y-85937695D01*
X145121333Y-85890076D01*
X145073714Y-85794838D01*
X145073714Y-85604361D01*
X145121333Y-85509123D01*
X145692761Y-84651980D02*
X145740380Y-84747219D01*
X145740380Y-84937695D01*
X145692761Y-85032933D01*
X145645142Y-85080552D01*
X145549904Y-85128171D01*
X145264190Y-85128171D01*
X145168952Y-85080552D01*
X145121333Y-85032933D01*
X145073714Y-84937695D01*
X145073714Y-84747219D01*
X145121333Y-84651980D01*
X142432114Y-81208476D02*
X143241638Y-81208476D01*
X143336876Y-81256095D01*
X143384495Y-81303714D01*
X143432114Y-81398952D01*
X143432114Y-81541809D01*
X143384495Y-81637047D01*
X143051161Y-81208476D02*
X143098780Y-81303714D01*
X143098780Y-81494190D01*
X143051161Y-81589428D01*
X143003542Y-81637047D01*
X142908304Y-81684666D01*
X142622590Y-81684666D01*
X142527352Y-81637047D01*
X142479733Y-81589428D01*
X142432114Y-81494190D01*
X142432114Y-81303714D01*
X142479733Y-81208476D01*
X142432114Y-80732285D02*
X143098780Y-80732285D01*
X142527352Y-80732285D02*
X142479733Y-80684666D01*
X142432114Y-80589428D01*
X142432114Y-80446571D01*
X142479733Y-80351333D01*
X142574971Y-80303714D01*
X143098780Y-80303714D01*
X143098780Y-79398952D02*
X142098780Y-79398952D01*
X143051161Y-79398952D02*
X143098780Y-79494190D01*
X143098780Y-79684666D01*
X143051161Y-79779904D01*
X143003542Y-79827523D01*
X142908304Y-79875142D01*
X142622590Y-79875142D01*
X142527352Y-79827523D01*
X142479733Y-79779904D01*
X142432114Y-79684666D01*
X142432114Y-79494190D01*
X142479733Y-79398952D01*
X108452380Y-113547619D02*
X107976190Y-113880952D01*
X108452380Y-114119047D02*
X107452380Y-114119047D01*
X107452380Y-113738095D01*
X107500000Y-113642857D01*
X107547619Y-113595238D01*
X107642857Y-113547619D01*
X107785714Y-113547619D01*
X107880952Y-113595238D01*
X107928571Y-113642857D01*
X107976190Y-113738095D01*
X107976190Y-114119047D01*
X108404761Y-113166666D02*
X108452380Y-113023809D01*
X108452380Y-112785714D01*
X108404761Y-112690476D01*
X108357142Y-112642857D01*
X108261904Y-112595238D01*
X108166666Y-112595238D01*
X108071428Y-112642857D01*
X108023809Y-112690476D01*
X107976190Y-112785714D01*
X107928571Y-112976190D01*
X107880952Y-113071428D01*
X107833333Y-113119047D01*
X107738095Y-113166666D01*
X107642857Y-113166666D01*
X107547619Y-113119047D01*
X107500000Y-113071428D01*
X107452380Y-112976190D01*
X107452380Y-112738095D01*
X107500000Y-112595238D01*
X107452380Y-112309523D02*
X107452380Y-111738095D01*
X108452380Y-112023809D02*
X107452380Y-112023809D01*
X162977485Y-79675123D02*
X162167961Y-79675123D01*
X162072723Y-79627504D01*
X162025104Y-79579885D01*
X161977485Y-79484647D01*
X161977485Y-79341790D01*
X162025104Y-79246552D01*
X162358438Y-79675123D02*
X162310819Y-79579885D01*
X162310819Y-79389409D01*
X162358438Y-79294171D01*
X162406057Y-79246552D01*
X162501295Y-79198933D01*
X162787009Y-79198933D01*
X162882247Y-79246552D01*
X162929866Y-79294171D01*
X162977485Y-79389409D01*
X162977485Y-79579885D01*
X162929866Y-79675123D01*
X162977485Y-80151314D02*
X162310819Y-80151314D01*
X162882247Y-80151314D02*
X162929866Y-80198933D01*
X162977485Y-80294171D01*
X162977485Y-80437028D01*
X162929866Y-80532266D01*
X162834628Y-80579885D01*
X162310819Y-80579885D01*
X162310819Y-81484647D02*
X163310819Y-81484647D01*
X162358438Y-81484647D02*
X162310819Y-81389409D01*
X162310819Y-81198933D01*
X162358438Y-81103695D01*
X162406057Y-81056076D01*
X162501295Y-81008457D01*
X162787009Y-81008457D01*
X162882247Y-81056076D01*
X162929866Y-81103695D01*
X162977485Y-81198933D01*
X162977485Y-81389409D01*
X162929866Y-81484647D01*
X144921314Y-81562438D02*
X145587980Y-81324342D01*
X144921314Y-81086247D01*
X145540361Y-80276723D02*
X145587980Y-80371961D01*
X145587980Y-80562438D01*
X145540361Y-80657676D01*
X145492742Y-80705295D01*
X145397504Y-80752914D01*
X145111790Y-80752914D01*
X145016552Y-80705295D01*
X144968933Y-80657676D01*
X144921314Y-80562438D01*
X144921314Y-80371961D01*
X144968933Y-80276723D01*
X145540361Y-79419580D02*
X145587980Y-79514819D01*
X145587980Y-79705295D01*
X145540361Y-79800533D01*
X145492742Y-79848152D01*
X145397504Y-79895771D01*
X145111790Y-79895771D01*
X145016552Y-79848152D01*
X144968933Y-79800533D01*
X144921314Y-79705295D01*
X144921314Y-79514819D01*
X144968933Y-79419580D01*
X159754914Y-87048838D02*
X160421580Y-86810742D01*
X159754914Y-86572647D01*
X160373961Y-85763123D02*
X160421580Y-85858361D01*
X160421580Y-86048838D01*
X160373961Y-86144076D01*
X160326342Y-86191695D01*
X160231104Y-86239314D01*
X159945390Y-86239314D01*
X159850152Y-86191695D01*
X159802533Y-86144076D01*
X159754914Y-86048838D01*
X159754914Y-85858361D01*
X159802533Y-85763123D01*
X160373961Y-84905980D02*
X160421580Y-85001219D01*
X160421580Y-85191695D01*
X160373961Y-85286933D01*
X160326342Y-85334552D01*
X160231104Y-85382171D01*
X159945390Y-85382171D01*
X159850152Y-85334552D01*
X159802533Y-85286933D01*
X159754914Y-85191695D01*
X159754914Y-85001219D01*
X159802533Y-84905980D01*
X154827314Y-89053752D02*
X155636838Y-89053752D01*
X155732076Y-89101371D01*
X155779695Y-89148990D01*
X155827314Y-89244228D01*
X155827314Y-89387085D01*
X155779695Y-89482323D01*
X155446361Y-89053752D02*
X155493980Y-89148990D01*
X155493980Y-89339466D01*
X155446361Y-89434704D01*
X155398742Y-89482323D01*
X155303504Y-89529942D01*
X155017790Y-89529942D01*
X154922552Y-89482323D01*
X154874933Y-89434704D01*
X154827314Y-89339466D01*
X154827314Y-89148990D01*
X154874933Y-89053752D01*
X154827314Y-88577561D02*
X155827314Y-88577561D01*
X154874933Y-88577561D02*
X154827314Y-88482323D01*
X154827314Y-88291847D01*
X154874933Y-88196609D01*
X154922552Y-88148990D01*
X155017790Y-88101371D01*
X155303504Y-88101371D01*
X155398742Y-88148990D01*
X155446361Y-88196609D01*
X155493980Y-88291847D01*
X155493980Y-88482323D01*
X155446361Y-88577561D01*
X155493980Y-87672800D02*
X154827314Y-87672800D01*
X154493980Y-87672800D02*
X154541600Y-87720419D01*
X154589219Y-87672800D01*
X154541600Y-87625180D01*
X154493980Y-87672800D01*
X154589219Y-87672800D01*
X155493980Y-87053752D02*
X155446361Y-87148990D01*
X155398742Y-87196609D01*
X155303504Y-87244228D01*
X155017790Y-87244228D01*
X154922552Y-87196609D01*
X154874933Y-87148990D01*
X154827314Y-87053752D01*
X154827314Y-86910895D01*
X154874933Y-86815657D01*
X154922552Y-86768038D01*
X155017790Y-86720419D01*
X155303504Y-86720419D01*
X155398742Y-86768038D01*
X155446361Y-86815657D01*
X155493980Y-86910895D01*
X155493980Y-87053752D01*
X154493980Y-86387085D02*
X154493980Y-85768038D01*
X154874933Y-86101371D01*
X154874933Y-85958514D01*
X154922552Y-85863276D01*
X154970171Y-85815657D01*
X155065409Y-85768038D01*
X155303504Y-85768038D01*
X155398742Y-85815657D01*
X155446361Y-85863276D01*
X155493980Y-85958514D01*
X155493980Y-86244228D01*
X155446361Y-86339466D01*
X155398742Y-86387085D01*
X154493980Y-84863276D02*
X154493980Y-85339466D01*
X154970171Y-85387085D01*
X154922552Y-85339466D01*
X154874933Y-85244228D01*
X154874933Y-85006133D01*
X154922552Y-84910895D01*
X154970171Y-84863276D01*
X155065409Y-84815657D01*
X155303504Y-84815657D01*
X155398742Y-84863276D01*
X155446361Y-84910895D01*
X155493980Y-85006133D01*
X155493980Y-85244228D01*
X155446361Y-85339466D01*
X155398742Y-85387085D01*
X154687638Y-79297352D02*
X154640019Y-79392590D01*
X154640019Y-79583066D01*
X154687638Y-79678304D01*
X154782876Y-79725923D01*
X154830495Y-79725923D01*
X154925733Y-79678304D01*
X154973352Y-79583066D01*
X154973352Y-79440209D01*
X155020971Y-79344971D01*
X155116209Y-79297352D01*
X155163828Y-79297352D01*
X155259066Y-79344971D01*
X155306685Y-79440209D01*
X155306685Y-79583066D01*
X155259066Y-79678304D01*
X154640019Y-80583066D02*
X155640019Y-80583066D01*
X154687638Y-80583066D02*
X154640019Y-80487828D01*
X154640019Y-80297352D01*
X154687638Y-80202114D01*
X154735257Y-80154495D01*
X154830495Y-80106876D01*
X155116209Y-80106876D01*
X155211447Y-80154495D01*
X155259066Y-80202114D01*
X155306685Y-80297352D01*
X155306685Y-80487828D01*
X155259066Y-80583066D01*
X154640019Y-81487828D02*
X155163828Y-81487828D01*
X155259066Y-81440209D01*
X155306685Y-81344971D01*
X155306685Y-81154495D01*
X155259066Y-81059257D01*
X154687638Y-81487828D02*
X154640019Y-81392590D01*
X154640019Y-81154495D01*
X154687638Y-81059257D01*
X154782876Y-81011638D01*
X154878114Y-81011638D01*
X154973352Y-81059257D01*
X155020971Y-81154495D01*
X155020971Y-81392590D01*
X155068590Y-81487828D01*
X131452380Y-96785714D02*
X130452380Y-96785714D01*
X130452380Y-96404761D01*
X130500000Y-96309523D01*
X130547619Y-96261904D01*
X130642857Y-96214285D01*
X130785714Y-96214285D01*
X130880952Y-96261904D01*
X130928571Y-96309523D01*
X130976190Y-96404761D01*
X130976190Y-96785714D01*
X131452380Y-95214285D02*
X130976190Y-95547619D01*
X131452380Y-95785714D02*
X130452380Y-95785714D01*
X130452380Y-95404761D01*
X130500000Y-95309523D01*
X130547619Y-95261904D01*
X130642857Y-95214285D01*
X130785714Y-95214285D01*
X130880952Y-95261904D01*
X130928571Y-95309523D01*
X130976190Y-95404761D01*
X130976190Y-95785714D01*
X130452380Y-94595238D02*
X130452380Y-94404761D01*
X130500000Y-94309523D01*
X130595238Y-94214285D01*
X130785714Y-94166666D01*
X131119047Y-94166666D01*
X131309523Y-94214285D01*
X131404761Y-94309523D01*
X131452380Y-94404761D01*
X131452380Y-94595238D01*
X131404761Y-94690476D01*
X131309523Y-94785714D01*
X131119047Y-94833333D01*
X130785714Y-94833333D01*
X130595238Y-94785714D01*
X130500000Y-94690476D01*
X130452380Y-94595238D01*
X130500000Y-93214285D02*
X130452380Y-93309523D01*
X130452380Y-93452380D01*
X130500000Y-93595238D01*
X130595238Y-93690476D01*
X130690476Y-93738095D01*
X130880952Y-93785714D01*
X131023809Y-93785714D01*
X131214285Y-93738095D01*
X131309523Y-93690476D01*
X131404761Y-93595238D01*
X131452380Y-93452380D01*
X131452380Y-93357142D01*
X131404761Y-93214285D01*
X131357142Y-93166666D01*
X131023809Y-93166666D01*
X131023809Y-93357142D01*
X135437619Y-80414761D02*
X135342380Y-80462380D01*
X135151904Y-80462380D01*
X135056666Y-80414761D01*
X135009047Y-80367142D01*
X134961428Y-80271904D01*
X134961428Y-79986190D01*
X135009047Y-79890952D01*
X135056666Y-79843333D01*
X135151904Y-79795714D01*
X135342380Y-79795714D01*
X135437619Y-79843333D01*
X135723333Y-79795714D02*
X136104285Y-79795714D01*
X135866190Y-79462380D02*
X135866190Y-80319523D01*
X135913809Y-80414761D01*
X136009047Y-80462380D01*
X136104285Y-80462380D01*
X136390000Y-80414761D02*
X136485238Y-80462380D01*
X136675714Y-80462380D01*
X136770952Y-80414761D01*
X136818571Y-80319523D01*
X136818571Y-80271904D01*
X136770952Y-80176666D01*
X136675714Y-80129047D01*
X136532857Y-80129047D01*
X136437619Y-80081428D01*
X136390000Y-79986190D01*
X136390000Y-79938571D01*
X136437619Y-79843333D01*
X136532857Y-79795714D01*
X136675714Y-79795714D01*
X136770952Y-79843333D01*
X148131161Y-81473561D02*
X148178780Y-81378323D01*
X148178780Y-81187847D01*
X148131161Y-81092609D01*
X148035923Y-81044990D01*
X147988304Y-81044990D01*
X147893066Y-81092609D01*
X147845447Y-81187847D01*
X147845447Y-81330704D01*
X147797828Y-81425942D01*
X147702590Y-81473561D01*
X147654971Y-81473561D01*
X147559733Y-81425942D01*
X147512114Y-81330704D01*
X147512114Y-81187847D01*
X147559733Y-81092609D01*
X148131161Y-80187847D02*
X148178780Y-80283085D01*
X148178780Y-80473561D01*
X148131161Y-80568800D01*
X148083542Y-80616419D01*
X147988304Y-80664038D01*
X147702590Y-80664038D01*
X147607352Y-80616419D01*
X147559733Y-80568800D01*
X147512114Y-80473561D01*
X147512114Y-80283085D01*
X147559733Y-80187847D01*
X148178780Y-79616419D02*
X148131161Y-79711657D01*
X148035923Y-79759276D01*
X147178780Y-79759276D01*
D13*
X173144571Y-116607142D02*
X173144571Y-117321428D01*
X171644571Y-117321428D01*
X171644571Y-116321428D02*
X173144571Y-115821428D01*
X171644571Y-115321428D01*
X172573142Y-114821428D02*
X172573142Y-113678571D01*
X173073142Y-113035714D02*
X173144571Y-112821428D01*
X173144571Y-112464285D01*
X173073142Y-112321428D01*
X173001714Y-112250000D01*
X172858857Y-112178571D01*
X172716000Y-112178571D01*
X172573142Y-112250000D01*
X172501714Y-112321428D01*
X172430285Y-112464285D01*
X172358857Y-112750000D01*
X172287428Y-112892857D01*
X172216000Y-112964285D01*
X172073142Y-113035714D01*
X171930285Y-113035714D01*
X171787428Y-112964285D01*
X171716000Y-112892857D01*
X171644571Y-112750000D01*
X171644571Y-112392857D01*
X171716000Y-112178571D01*
X173144571Y-111535714D02*
X171644571Y-111535714D01*
X173144571Y-110821428D02*
X171644571Y-110821428D01*
X171644571Y-110464285D01*
X171716000Y-110250000D01*
X171858857Y-110107142D01*
X172001714Y-110035714D01*
X172287428Y-109964285D01*
X172501714Y-109964285D01*
X172787428Y-110035714D01*
X172930285Y-110107142D01*
X173073142Y-110250000D01*
X173144571Y-110464285D01*
X173144571Y-110821428D01*
X172358857Y-109321428D02*
X172358857Y-108821428D01*
X173144571Y-108607142D02*
X173144571Y-109321428D01*
X171644571Y-109321428D01*
X171644571Y-108607142D01*
D14*
X187904380Y-98519619D02*
X186904380Y-98519619D01*
X187380571Y-98519619D02*
X187380571Y-97948190D01*
X187904380Y-97948190D02*
X186904380Y-97948190D01*
X187904380Y-97472000D02*
X186904380Y-97472000D01*
X186952000Y-96472000D02*
X186904380Y-96567238D01*
X186904380Y-96710095D01*
X186952000Y-96852952D01*
X187047238Y-96948190D01*
X187142476Y-96995809D01*
X187332952Y-97043428D01*
X187475809Y-97043428D01*
X187666285Y-96995809D01*
X187761523Y-96948190D01*
X187856761Y-96852952D01*
X187904380Y-96710095D01*
X187904380Y-96614857D01*
X187856761Y-96472000D01*
X187809142Y-96424380D01*
X187475809Y-96424380D01*
X187475809Y-96614857D01*
X187904380Y-95995809D02*
X186904380Y-95995809D01*
X187380571Y-95995809D02*
X187380571Y-95424380D01*
X187904380Y-95424380D02*
X186904380Y-95424380D01*
X186904380Y-94329142D02*
X187904380Y-93995809D01*
X186904380Y-93662476D01*
X186904380Y-93138666D02*
X186904380Y-92948190D01*
X186952000Y-92852952D01*
X187047238Y-92757714D01*
X187237714Y-92710095D01*
X187571047Y-92710095D01*
X187761523Y-92757714D01*
X187856761Y-92852952D01*
X187904380Y-92948190D01*
X187904380Y-93138666D01*
X187856761Y-93233904D01*
X187761523Y-93329142D01*
X187571047Y-93376761D01*
X187237714Y-93376761D01*
X187047238Y-93329142D01*
X186952000Y-93233904D01*
X186904380Y-93138666D01*
X187904380Y-91805333D02*
X187904380Y-92281523D01*
X186904380Y-92281523D01*
X186904380Y-91614857D02*
X186904380Y-91043428D01*
X187904380Y-91329142D02*
X186904380Y-91329142D01*
X187618666Y-90757714D02*
X187618666Y-90281523D01*
X187904380Y-90852952D02*
X186904380Y-90519619D01*
X187904380Y-90186285D01*
X186952000Y-89329142D02*
X186904380Y-89424380D01*
X186904380Y-89567238D01*
X186952000Y-89710095D01*
X187047238Y-89805333D01*
X187142476Y-89852952D01*
X187332952Y-89900571D01*
X187475809Y-89900571D01*
X187666285Y-89852952D01*
X187761523Y-89805333D01*
X187856761Y-89710095D01*
X187904380Y-89567238D01*
X187904380Y-89472000D01*
X187856761Y-89329142D01*
X187809142Y-89281523D01*
X187475809Y-89281523D01*
X187475809Y-89472000D01*
X187380571Y-88852952D02*
X187380571Y-88519619D01*
X187904380Y-88376761D02*
X187904380Y-88852952D01*
X186904380Y-88852952D01*
X186904380Y-88376761D01*
D12*
X157316514Y-89002952D02*
X158126038Y-89002952D01*
X158221276Y-89050571D01*
X158268895Y-89098190D01*
X158316514Y-89193428D01*
X158316514Y-89336285D01*
X158268895Y-89431523D01*
X157935561Y-89002952D02*
X157983180Y-89098190D01*
X157983180Y-89288666D01*
X157935561Y-89383904D01*
X157887942Y-89431523D01*
X157792704Y-89479142D01*
X157506990Y-89479142D01*
X157411752Y-89431523D01*
X157364133Y-89383904D01*
X157316514Y-89288666D01*
X157316514Y-89098190D01*
X157364133Y-89002952D01*
X157316514Y-88526761D02*
X158316514Y-88526761D01*
X157364133Y-88526761D02*
X157316514Y-88431523D01*
X157316514Y-88241047D01*
X157364133Y-88145809D01*
X157411752Y-88098190D01*
X157506990Y-88050571D01*
X157792704Y-88050571D01*
X157887942Y-88098190D01*
X157935561Y-88145809D01*
X157983180Y-88241047D01*
X157983180Y-88431523D01*
X157935561Y-88526761D01*
X157983180Y-87622000D02*
X157316514Y-87622000D01*
X156983180Y-87622000D02*
X157030800Y-87669619D01*
X157078419Y-87622000D01*
X157030800Y-87574380D01*
X156983180Y-87622000D01*
X157078419Y-87622000D01*
X157983180Y-87002952D02*
X157935561Y-87098190D01*
X157887942Y-87145809D01*
X157792704Y-87193428D01*
X157506990Y-87193428D01*
X157411752Y-87145809D01*
X157364133Y-87098190D01*
X157316514Y-87002952D01*
X157316514Y-86860095D01*
X157364133Y-86764857D01*
X157411752Y-86717238D01*
X157506990Y-86669619D01*
X157792704Y-86669619D01*
X157887942Y-86717238D01*
X157935561Y-86764857D01*
X157983180Y-86860095D01*
X157983180Y-87002952D01*
X156983180Y-86336285D02*
X156983180Y-85717238D01*
X157364133Y-86050571D01*
X157364133Y-85907714D01*
X157411752Y-85812476D01*
X157459371Y-85764857D01*
X157554609Y-85717238D01*
X157792704Y-85717238D01*
X157887942Y-85764857D01*
X157935561Y-85812476D01*
X157983180Y-85907714D01*
X157983180Y-86193428D01*
X157935561Y-86288666D01*
X157887942Y-86336285D01*
X157078419Y-85336285D02*
X157030800Y-85288666D01*
X156983180Y-85193428D01*
X156983180Y-84955333D01*
X157030800Y-84860095D01*
X157078419Y-84812476D01*
X157173657Y-84764857D01*
X157268895Y-84764857D01*
X157411752Y-84812476D01*
X157983180Y-85383904D01*
X157983180Y-84764857D01*
D13*
X133778857Y-105858571D02*
X134707428Y-105858571D01*
X134207428Y-106430000D01*
X134421714Y-106430000D01*
X134564571Y-106501428D01*
X134636000Y-106572857D01*
X134707428Y-106715714D01*
X134707428Y-107072857D01*
X134636000Y-107215714D01*
X134564571Y-107287142D01*
X134421714Y-107358571D01*
X133993142Y-107358571D01*
X133850285Y-107287142D01*
X133778857Y-107215714D01*
X135136000Y-105858571D02*
X135636000Y-107358571D01*
X136136000Y-105858571D01*
X136493142Y-105858571D02*
X137421714Y-105858571D01*
X136921714Y-106430000D01*
X137136000Y-106430000D01*
X137278857Y-106501428D01*
X137350285Y-106572857D01*
X137421714Y-106715714D01*
X137421714Y-107072857D01*
X137350285Y-107215714D01*
X137278857Y-107287142D01*
X137136000Y-107358571D01*
X136707428Y-107358571D01*
X136564571Y-107287142D01*
X136493142Y-107215714D01*
X145764285Y-105858571D02*
X145050000Y-105858571D01*
X144978571Y-106572857D01*
X145050000Y-106501428D01*
X145192857Y-106430000D01*
X145550000Y-106430000D01*
X145692857Y-106501428D01*
X145764285Y-106572857D01*
X145835714Y-106715714D01*
X145835714Y-107072857D01*
X145764285Y-107215714D01*
X145692857Y-107287142D01*
X145550000Y-107358571D01*
X145192857Y-107358571D01*
X145050000Y-107287142D01*
X144978571Y-107215714D01*
X146264285Y-105858571D02*
X146764285Y-107358571D01*
X147264285Y-105858571D01*
D14*
X190952380Y-98876761D02*
X189952380Y-98876761D01*
X190952380Y-98305333D01*
X189952380Y-98305333D01*
X189952380Y-97638666D02*
X189952380Y-97448190D01*
X190000000Y-97352952D01*
X190095238Y-97257714D01*
X190285714Y-97210095D01*
X190619047Y-97210095D01*
X190809523Y-97257714D01*
X190904761Y-97352952D01*
X190952380Y-97448190D01*
X190952380Y-97638666D01*
X190904761Y-97733904D01*
X190809523Y-97829142D01*
X190619047Y-97876761D01*
X190285714Y-97876761D01*
X190095238Y-97829142D01*
X190000000Y-97733904D01*
X189952380Y-97638666D01*
X189952380Y-96162476D02*
X189952380Y-95591047D01*
X190952380Y-95876761D02*
X189952380Y-95876761D01*
X189952380Y-95067238D02*
X189952380Y-94876761D01*
X190000000Y-94781523D01*
X190095238Y-94686285D01*
X190285714Y-94638666D01*
X190619047Y-94638666D01*
X190809523Y-94686285D01*
X190904761Y-94781523D01*
X190952380Y-94876761D01*
X190952380Y-95067238D01*
X190904761Y-95162476D01*
X190809523Y-95257714D01*
X190619047Y-95305333D01*
X190285714Y-95305333D01*
X190095238Y-95257714D01*
X190000000Y-95162476D01*
X189952380Y-95067238D01*
X189952380Y-94210095D02*
X190761904Y-94210095D01*
X190857142Y-94162476D01*
X190904761Y-94114857D01*
X190952380Y-94019619D01*
X190952380Y-93829142D01*
X190904761Y-93733904D01*
X190857142Y-93686285D01*
X190761904Y-93638666D01*
X189952380Y-93638666D01*
X190857142Y-92591047D02*
X190904761Y-92638666D01*
X190952380Y-92781523D01*
X190952380Y-92876761D01*
X190904761Y-93019619D01*
X190809523Y-93114857D01*
X190714285Y-93162476D01*
X190523809Y-93210095D01*
X190380952Y-93210095D01*
X190190476Y-93162476D01*
X190095238Y-93114857D01*
X190000000Y-93019619D01*
X189952380Y-92876761D01*
X189952380Y-92781523D01*
X190000000Y-92638666D01*
X190047619Y-92591047D01*
X190952380Y-92162476D02*
X189952380Y-92162476D01*
X190428571Y-92162476D02*
X190428571Y-91591047D01*
X190952380Y-91591047D02*
X189952380Y-91591047D01*
X190952380Y-90352952D02*
X189952380Y-90352952D01*
X189952380Y-89972000D01*
X190000000Y-89876761D01*
X190047619Y-89829142D01*
X190142857Y-89781523D01*
X190285714Y-89781523D01*
X190380952Y-89829142D01*
X190428571Y-89876761D01*
X190476190Y-89972000D01*
X190476190Y-90352952D01*
X190952380Y-88876761D02*
X190952380Y-89352952D01*
X189952380Y-89352952D01*
X190904761Y-88591047D02*
X190952380Y-88448190D01*
X190952380Y-88210095D01*
X190904761Y-88114857D01*
X190857142Y-88067238D01*
X190761904Y-88019619D01*
X190666666Y-88019619D01*
X190571428Y-88067238D01*
X190523809Y-88114857D01*
X190476190Y-88210095D01*
X190428571Y-88400571D01*
X190380952Y-88495809D01*
X190333333Y-88543428D01*
X190238095Y-88591047D01*
X190142857Y-88591047D01*
X190047619Y-88543428D01*
X190000000Y-88495809D01*
X189952380Y-88400571D01*
X189952380Y-88162476D01*
X190000000Y-88019619D01*
D15*
%TO.C,D4*%
X118562380Y-82424495D02*
X117562380Y-82424495D01*
X117562380Y-82186400D01*
X117610000Y-82043542D01*
X117705238Y-81948304D01*
X117800476Y-81900685D01*
X117990952Y-81853066D01*
X118133809Y-81853066D01*
X118324285Y-81900685D01*
X118419523Y-81948304D01*
X118514761Y-82043542D01*
X118562380Y-82186400D01*
X118562380Y-82424495D01*
X117895714Y-80995923D02*
X118562380Y-80995923D01*
X117514761Y-81234019D02*
X118229047Y-81472114D01*
X118229047Y-80853066D01*
%TO.C,R1*%
X166290833Y-88312380D02*
X165957500Y-87836190D01*
X165719404Y-88312380D02*
X165719404Y-87312380D01*
X166100357Y-87312380D01*
X166195595Y-87360000D01*
X166243214Y-87407619D01*
X166290833Y-87502857D01*
X166290833Y-87645714D01*
X166243214Y-87740952D01*
X166195595Y-87788571D01*
X166100357Y-87836190D01*
X165719404Y-87836190D01*
X167243214Y-88312380D02*
X166671785Y-88312380D01*
X166957500Y-88312380D02*
X166957500Y-87312380D01*
X166862261Y-87455238D01*
X166767023Y-87550476D01*
X166671785Y-87598095D01*
%TO.C,D3*%
X121153180Y-82373695D02*
X120153180Y-82373695D01*
X120153180Y-82135600D01*
X120200800Y-81992742D01*
X120296038Y-81897504D01*
X120391276Y-81849885D01*
X120581752Y-81802266D01*
X120724609Y-81802266D01*
X120915085Y-81849885D01*
X121010323Y-81897504D01*
X121105561Y-81992742D01*
X121153180Y-82135600D01*
X121153180Y-82373695D01*
X120153180Y-81468933D02*
X120153180Y-80849885D01*
X120534133Y-81183219D01*
X120534133Y-81040361D01*
X120581752Y-80945123D01*
X120629371Y-80897504D01*
X120724609Y-80849885D01*
X120962704Y-80849885D01*
X121057942Y-80897504D01*
X121105561Y-80945123D01*
X121153180Y-81040361D01*
X121153180Y-81326076D01*
X121105561Y-81421314D01*
X121057942Y-81468933D01*
%TO.C,J9*%
X152055580Y-83391333D02*
X152769866Y-83391333D01*
X152912723Y-83438952D01*
X153007961Y-83534190D01*
X153055580Y-83677047D01*
X153055580Y-83772285D01*
X153055580Y-82867523D02*
X153055580Y-82677047D01*
X153007961Y-82581809D01*
X152960342Y-82534190D01*
X152817485Y-82438952D01*
X152627009Y-82391333D01*
X152246057Y-82391333D01*
X152150819Y-82438952D01*
X152103200Y-82486571D01*
X152055580Y-82581809D01*
X152055580Y-82772285D01*
X152103200Y-82867523D01*
X152150819Y-82915142D01*
X152246057Y-82962761D01*
X152484152Y-82962761D01*
X152579390Y-82915142D01*
X152627009Y-82867523D01*
X152674628Y-82772285D01*
X152674628Y-82581809D01*
X152627009Y-82486571D01*
X152579390Y-82438952D01*
X152484152Y-82391333D01*
%TO.C,R3*%
X182957380Y-100699866D02*
X182481190Y-101033200D01*
X182957380Y-101271295D02*
X181957380Y-101271295D01*
X181957380Y-100890342D01*
X182005000Y-100795104D01*
X182052619Y-100747485D01*
X182147857Y-100699866D01*
X182290714Y-100699866D01*
X182385952Y-100747485D01*
X182433571Y-100795104D01*
X182481190Y-100890342D01*
X182481190Y-101271295D01*
X181957380Y-100366533D02*
X181957380Y-99747485D01*
X182338333Y-100080819D01*
X182338333Y-99937961D01*
X182385952Y-99842723D01*
X182433571Y-99795104D01*
X182528809Y-99747485D01*
X182766904Y-99747485D01*
X182862142Y-99795104D01*
X182909761Y-99842723D01*
X182957380Y-99937961D01*
X182957380Y-100223676D01*
X182909761Y-100318914D01*
X182862142Y-100366533D01*
%TO.C,C3*%
X157485142Y-102020666D02*
X157532761Y-102068285D01*
X157580380Y-102211142D01*
X157580380Y-102306380D01*
X157532761Y-102449238D01*
X157437523Y-102544476D01*
X157342285Y-102592095D01*
X157151809Y-102639714D01*
X157008952Y-102639714D01*
X156818476Y-102592095D01*
X156723238Y-102544476D01*
X156628000Y-102449238D01*
X156580380Y-102306380D01*
X156580380Y-102211142D01*
X156628000Y-102068285D01*
X156675619Y-102020666D01*
X156580380Y-101687333D02*
X156580380Y-101068285D01*
X156961333Y-101401619D01*
X156961333Y-101258761D01*
X157008952Y-101163523D01*
X157056571Y-101115904D01*
X157151809Y-101068285D01*
X157389904Y-101068285D01*
X157485142Y-101115904D01*
X157532761Y-101163523D01*
X157580380Y-101258761D01*
X157580380Y-101544476D01*
X157532761Y-101639714D01*
X157485142Y-101687333D01*
%TO.C,C1*%
X142695142Y-102020666D02*
X142742761Y-102068285D01*
X142790380Y-102211142D01*
X142790380Y-102306380D01*
X142742761Y-102449238D01*
X142647523Y-102544476D01*
X142552285Y-102592095D01*
X142361809Y-102639714D01*
X142218952Y-102639714D01*
X142028476Y-102592095D01*
X141933238Y-102544476D01*
X141838000Y-102449238D01*
X141790380Y-102306380D01*
X141790380Y-102211142D01*
X141838000Y-102068285D01*
X141885619Y-102020666D01*
X142790380Y-101068285D02*
X142790380Y-101639714D01*
X142790380Y-101354000D02*
X141790380Y-101354000D01*
X141933238Y-101449238D01*
X142028476Y-101544476D01*
X142076095Y-101639714D01*
%TO.C,J2*%
X164258666Y-117816380D02*
X164258666Y-118530666D01*
X164211047Y-118673523D01*
X164115809Y-118768761D01*
X163972952Y-118816380D01*
X163877714Y-118816380D01*
X164687238Y-117911619D02*
X164734857Y-117864000D01*
X164830095Y-117816380D01*
X165068190Y-117816380D01*
X165163428Y-117864000D01*
X165211047Y-117911619D01*
X165258666Y-118006857D01*
X165258666Y-118102095D01*
X165211047Y-118244952D01*
X164639619Y-118816380D01*
X165258666Y-118816380D01*
%TO.C,J7*%
X132508666Y-106386380D02*
X132508666Y-107100666D01*
X132461047Y-107243523D01*
X132365809Y-107338761D01*
X132222952Y-107386380D01*
X132127714Y-107386380D01*
X132889619Y-106386380D02*
X133556285Y-106386380D01*
X133127714Y-107386380D01*
%TO.C,R16*%
X141296505Y-82794273D02*
X140820315Y-83127606D01*
X141296505Y-83365701D02*
X140296505Y-83365701D01*
X140296505Y-82984749D01*
X140344125Y-82889511D01*
X140391744Y-82841892D01*
X140486982Y-82794273D01*
X140629839Y-82794273D01*
X140725077Y-82841892D01*
X140772696Y-82889511D01*
X140820315Y-82984749D01*
X140820315Y-83365701D01*
X141296505Y-81841892D02*
X141296505Y-82413320D01*
X141296505Y-82127606D02*
X140296505Y-82127606D01*
X140439363Y-82222844D01*
X140534601Y-82318082D01*
X140582220Y-82413320D01*
X140296505Y-80984749D02*
X140296505Y-81175225D01*
X140344125Y-81270463D01*
X140391744Y-81318082D01*
X140534601Y-81413320D01*
X140725077Y-81460939D01*
X141106029Y-81460939D01*
X141201267Y-81413320D01*
X141248886Y-81365701D01*
X141296505Y-81270463D01*
X141296505Y-81079987D01*
X141248886Y-80984749D01*
X141201267Y-80937130D01*
X141106029Y-80889511D01*
X140867934Y-80889511D01*
X140772696Y-80937130D01*
X140725077Y-80984749D01*
X140677458Y-81079987D01*
X140677458Y-81270463D01*
X140725077Y-81365701D01*
X140772696Y-81413320D01*
X140867934Y-81460939D01*
%TO.C,J3*%
X124634666Y-79563980D02*
X124634666Y-80278266D01*
X124587047Y-80421123D01*
X124491809Y-80516361D01*
X124348952Y-80563980D01*
X124253714Y-80563980D01*
X125015619Y-79563980D02*
X125634666Y-79563980D01*
X125301333Y-79944933D01*
X125444190Y-79944933D01*
X125539428Y-79992552D01*
X125587047Y-80040171D01*
X125634666Y-80135409D01*
X125634666Y-80373504D01*
X125587047Y-80468742D01*
X125539428Y-80516361D01*
X125444190Y-80563980D01*
X125158476Y-80563980D01*
X125063238Y-80516361D01*
X125015619Y-80468742D01*
%TO.C,Q1*%
X168052761Y-96559619D02*
X167957523Y-96512000D01*
X167862285Y-96416761D01*
X167719428Y-96273904D01*
X167624190Y-96226285D01*
X167528952Y-96226285D01*
X167576571Y-96464380D02*
X167481333Y-96416761D01*
X167386095Y-96321523D01*
X167338476Y-96131047D01*
X167338476Y-95797714D01*
X167386095Y-95607238D01*
X167481333Y-95512000D01*
X167576571Y-95464380D01*
X167767047Y-95464380D01*
X167862285Y-95512000D01*
X167957523Y-95607238D01*
X168005142Y-95797714D01*
X168005142Y-96131047D01*
X167957523Y-96321523D01*
X167862285Y-96416761D01*
X167767047Y-96464380D01*
X167576571Y-96464380D01*
X168957523Y-96464380D02*
X168386095Y-96464380D01*
X168671809Y-96464380D02*
X168671809Y-95464380D01*
X168576571Y-95607238D01*
X168481333Y-95702476D01*
X168386095Y-95750095D01*
%TO.C,R5*%
X166474380Y-102020666D02*
X165998190Y-102354000D01*
X166474380Y-102592095D02*
X165474380Y-102592095D01*
X165474380Y-102211142D01*
X165522000Y-102115904D01*
X165569619Y-102068285D01*
X165664857Y-102020666D01*
X165807714Y-102020666D01*
X165902952Y-102068285D01*
X165950571Y-102115904D01*
X165998190Y-102211142D01*
X165998190Y-102592095D01*
X165474380Y-101115904D02*
X165474380Y-101592095D01*
X165950571Y-101639714D01*
X165902952Y-101592095D01*
X165855333Y-101496857D01*
X165855333Y-101258761D01*
X165902952Y-101163523D01*
X165950571Y-101115904D01*
X166045809Y-101068285D01*
X166283904Y-101068285D01*
X166379142Y-101115904D01*
X166426761Y-101163523D01*
X166474380Y-101258761D01*
X166474380Y-101496857D01*
X166426761Y-101592095D01*
X166379142Y-101639714D01*
%TO.C,R6*%
X158583333Y-101290380D02*
X158250000Y-100814190D01*
X158011904Y-101290380D02*
X158011904Y-100290380D01*
X158392857Y-100290380D01*
X158488095Y-100338000D01*
X158535714Y-100385619D01*
X158583333Y-100480857D01*
X158583333Y-100623714D01*
X158535714Y-100718952D01*
X158488095Y-100766571D01*
X158392857Y-100814190D01*
X158011904Y-100814190D01*
X159440476Y-100290380D02*
X159250000Y-100290380D01*
X159154761Y-100338000D01*
X159107142Y-100385619D01*
X159011904Y-100528476D01*
X158964285Y-100718952D01*
X158964285Y-101099904D01*
X159011904Y-101195142D01*
X159059523Y-101242761D01*
X159154761Y-101290380D01*
X159345238Y-101290380D01*
X159440476Y-101242761D01*
X159488095Y-101195142D01*
X159535714Y-101099904D01*
X159535714Y-100861809D01*
X159488095Y-100766571D01*
X159440476Y-100718952D01*
X159345238Y-100671333D01*
X159154761Y-100671333D01*
X159059523Y-100718952D01*
X159011904Y-100766571D01*
X158964285Y-100861809D01*
%TO.C,D7*%
X110891580Y-82468095D02*
X109891580Y-82468095D01*
X109891580Y-82230000D01*
X109939200Y-82087142D01*
X110034438Y-81991904D01*
X110129676Y-81944285D01*
X110320152Y-81896666D01*
X110463009Y-81896666D01*
X110653485Y-81944285D01*
X110748723Y-81991904D01*
X110843961Y-82087142D01*
X110891580Y-82230000D01*
X110891580Y-82468095D01*
X109891580Y-81563333D02*
X109891580Y-80896666D01*
X110891580Y-81325238D01*
%TO.C,H3*%
X104495695Y-83256380D02*
X104495695Y-82256380D01*
X104495695Y-82732571D02*
X105067123Y-82732571D01*
X105067123Y-83256380D02*
X105067123Y-82256380D01*
X105448076Y-82256380D02*
X106067123Y-82256380D01*
X105733790Y-82637333D01*
X105876647Y-82637333D01*
X105971885Y-82684952D01*
X106019504Y-82732571D01*
X106067123Y-82827809D01*
X106067123Y-83065904D01*
X106019504Y-83161142D01*
X105971885Y-83208761D01*
X105876647Y-83256380D01*
X105590933Y-83256380D01*
X105495695Y-83208761D01*
X105448076Y-83161142D01*
%TO.C,R15*%
X131516380Y-105798857D02*
X131040190Y-106132190D01*
X131516380Y-106370285D02*
X130516380Y-106370285D01*
X130516380Y-105989333D01*
X130564000Y-105894095D01*
X130611619Y-105846476D01*
X130706857Y-105798857D01*
X130849714Y-105798857D01*
X130944952Y-105846476D01*
X130992571Y-105894095D01*
X131040190Y-105989333D01*
X131040190Y-106370285D01*
X131516380Y-104846476D02*
X131516380Y-105417904D01*
X131516380Y-105132190D02*
X130516380Y-105132190D01*
X130659238Y-105227428D01*
X130754476Y-105322666D01*
X130802095Y-105417904D01*
X130516380Y-103941714D02*
X130516380Y-104417904D01*
X130992571Y-104465523D01*
X130944952Y-104417904D01*
X130897333Y-104322666D01*
X130897333Y-104084571D01*
X130944952Y-103989333D01*
X130992571Y-103941714D01*
X131087809Y-103894095D01*
X131325904Y-103894095D01*
X131421142Y-103941714D01*
X131468761Y-103989333D01*
X131516380Y-104084571D01*
X131516380Y-104322666D01*
X131468761Y-104417904D01*
X131421142Y-104465523D01*
%TO.C,J5*%
X164317380Y-78253333D02*
X165031666Y-78253333D01*
X165174523Y-78300952D01*
X165269761Y-78396190D01*
X165317380Y-78539047D01*
X165317380Y-78634285D01*
X164317380Y-77300952D02*
X164317380Y-77777142D01*
X164793571Y-77824761D01*
X164745952Y-77777142D01*
X164698333Y-77681904D01*
X164698333Y-77443809D01*
X164745952Y-77348571D01*
X164793571Y-77300952D01*
X164888809Y-77253333D01*
X165126904Y-77253333D01*
X165222142Y-77300952D01*
X165269761Y-77348571D01*
X165317380Y-77443809D01*
X165317380Y-77681904D01*
X165269761Y-77777142D01*
X165222142Y-77824761D01*
%TO.C,R8*%
X119010133Y-109926380D02*
X118676800Y-109450190D01*
X118438704Y-109926380D02*
X118438704Y-108926380D01*
X118819657Y-108926380D01*
X118914895Y-108974000D01*
X118962514Y-109021619D01*
X119010133Y-109116857D01*
X119010133Y-109259714D01*
X118962514Y-109354952D01*
X118914895Y-109402571D01*
X118819657Y-109450190D01*
X118438704Y-109450190D01*
X119581561Y-109354952D02*
X119486323Y-109307333D01*
X119438704Y-109259714D01*
X119391085Y-109164476D01*
X119391085Y-109116857D01*
X119438704Y-109021619D01*
X119486323Y-108974000D01*
X119581561Y-108926380D01*
X119772038Y-108926380D01*
X119867276Y-108974000D01*
X119914895Y-109021619D01*
X119962514Y-109116857D01*
X119962514Y-109164476D01*
X119914895Y-109259714D01*
X119867276Y-109307333D01*
X119772038Y-109354952D01*
X119581561Y-109354952D01*
X119486323Y-109402571D01*
X119438704Y-109450190D01*
X119391085Y-109545428D01*
X119391085Y-109735904D01*
X119438704Y-109831142D01*
X119486323Y-109878761D01*
X119581561Y-109926380D01*
X119772038Y-109926380D01*
X119867276Y-109878761D01*
X119914895Y-109831142D01*
X119962514Y-109735904D01*
X119962514Y-109545428D01*
X119914895Y-109450190D01*
X119867276Y-109402571D01*
X119772038Y-109354952D01*
%TO.C,R2*%
X123693180Y-82005466D02*
X123216990Y-82338800D01*
X123693180Y-82576895D02*
X122693180Y-82576895D01*
X122693180Y-82195942D01*
X122740800Y-82100704D01*
X122788419Y-82053085D01*
X122883657Y-82005466D01*
X123026514Y-82005466D01*
X123121752Y-82053085D01*
X123169371Y-82100704D01*
X123216990Y-82195942D01*
X123216990Y-82576895D01*
X122788419Y-81624514D02*
X122740800Y-81576895D01*
X122693180Y-81481657D01*
X122693180Y-81243561D01*
X122740800Y-81148323D01*
X122788419Y-81100704D01*
X122883657Y-81053085D01*
X122978895Y-81053085D01*
X123121752Y-81100704D01*
X123693180Y-81672133D01*
X123693180Y-81053085D01*
%TO.C,U2*%
X145636295Y-96011780D02*
X145636295Y-96821304D01*
X145683914Y-96916542D01*
X145731533Y-96964161D01*
X145826771Y-97011780D01*
X146017247Y-97011780D01*
X146112485Y-96964161D01*
X146160104Y-96916542D01*
X146207723Y-96821304D01*
X146207723Y-96011780D01*
X146636295Y-96107019D02*
X146683914Y-96059400D01*
X146779152Y-96011780D01*
X147017247Y-96011780D01*
X147112485Y-96059400D01*
X147160104Y-96107019D01*
X147207723Y-96202257D01*
X147207723Y-96297495D01*
X147160104Y-96440352D01*
X146588676Y-97011780D01*
X147207723Y-97011780D01*
%TO.C,D2*%
X126566704Y-86101180D02*
X126566704Y-85101180D01*
X126804800Y-85101180D01*
X126947657Y-85148800D01*
X127042895Y-85244038D01*
X127090514Y-85339276D01*
X127138133Y-85529752D01*
X127138133Y-85672609D01*
X127090514Y-85863085D01*
X127042895Y-85958323D01*
X126947657Y-86053561D01*
X126804800Y-86101180D01*
X126566704Y-86101180D01*
X127519085Y-85196419D02*
X127566704Y-85148800D01*
X127661942Y-85101180D01*
X127900038Y-85101180D01*
X127995276Y-85148800D01*
X128042895Y-85196419D01*
X128090514Y-85291657D01*
X128090514Y-85386895D01*
X128042895Y-85529752D01*
X127471466Y-86101180D01*
X128090514Y-86101180D01*
%TO.C,J8*%
X126920666Y-109332780D02*
X126920666Y-110047066D01*
X126873047Y-110189923D01*
X126777809Y-110285161D01*
X126634952Y-110332780D01*
X126539714Y-110332780D01*
X127539714Y-109761352D02*
X127444476Y-109713733D01*
X127396857Y-109666114D01*
X127349238Y-109570876D01*
X127349238Y-109523257D01*
X127396857Y-109428019D01*
X127444476Y-109380400D01*
X127539714Y-109332780D01*
X127730190Y-109332780D01*
X127825428Y-109380400D01*
X127873047Y-109428019D01*
X127920666Y-109523257D01*
X127920666Y-109570876D01*
X127873047Y-109666114D01*
X127825428Y-109713733D01*
X127730190Y-109761352D01*
X127539714Y-109761352D01*
X127444476Y-109808971D01*
X127396857Y-109856590D01*
X127349238Y-109951828D01*
X127349238Y-110142304D01*
X127396857Y-110237542D01*
X127444476Y-110285161D01*
X127539714Y-110332780D01*
X127730190Y-110332780D01*
X127825428Y-110285161D01*
X127873047Y-110237542D01*
X127920666Y-110142304D01*
X127920666Y-109951828D01*
X127873047Y-109856590D01*
X127825428Y-109808971D01*
X127730190Y-109761352D01*
%TO.C,J10*%
X164317380Y-83809523D02*
X165031666Y-83809523D01*
X165174523Y-83857142D01*
X165269761Y-83952380D01*
X165317380Y-84095238D01*
X165317380Y-84190476D01*
X165317380Y-82809523D02*
X165317380Y-83380952D01*
X165317380Y-83095238D02*
X164317380Y-83095238D01*
X164460238Y-83190476D01*
X164555476Y-83285714D01*
X164603095Y-83380952D01*
X164317380Y-82190476D02*
X164317380Y-82095238D01*
X164365000Y-82000000D01*
X164412619Y-81952380D01*
X164507857Y-81904761D01*
X164698333Y-81857142D01*
X164936428Y-81857142D01*
X165126904Y-81904761D01*
X165222142Y-81952380D01*
X165269761Y-82000000D01*
X165317380Y-82095238D01*
X165317380Y-82190476D01*
X165269761Y-82285714D01*
X165222142Y-82333333D01*
X165126904Y-82380952D01*
X164936428Y-82428571D01*
X164698333Y-82428571D01*
X164507857Y-82380952D01*
X164412619Y-82333333D01*
X164365000Y-82285714D01*
X164317380Y-82190476D01*
%TO.C,SW1*%
X108404761Y-118333333D02*
X108452380Y-118190476D01*
X108452380Y-117952380D01*
X108404761Y-117857142D01*
X108357142Y-117809523D01*
X108261904Y-117761904D01*
X108166666Y-117761904D01*
X108071428Y-117809523D01*
X108023809Y-117857142D01*
X107976190Y-117952380D01*
X107928571Y-118142857D01*
X107880952Y-118238095D01*
X107833333Y-118285714D01*
X107738095Y-118333333D01*
X107642857Y-118333333D01*
X107547619Y-118285714D01*
X107500000Y-118238095D01*
X107452380Y-118142857D01*
X107452380Y-117904761D01*
X107500000Y-117761904D01*
X107452380Y-117428571D02*
X108452380Y-117190476D01*
X107738095Y-117000000D01*
X108452380Y-116809523D01*
X107452380Y-116571428D01*
X108452380Y-115666666D02*
X108452380Y-116238095D01*
X108452380Y-115952380D02*
X107452380Y-115952380D01*
X107595238Y-116047619D01*
X107690476Y-116142857D01*
X107738095Y-116238095D01*
%TO.C,R12*%
X113533180Y-78925657D02*
X113056990Y-79258990D01*
X113533180Y-79497085D02*
X112533180Y-79497085D01*
X112533180Y-79116133D01*
X112580800Y-79020895D01*
X112628419Y-78973276D01*
X112723657Y-78925657D01*
X112866514Y-78925657D01*
X112961752Y-78973276D01*
X113009371Y-79020895D01*
X113056990Y-79116133D01*
X113056990Y-79497085D01*
X113533180Y-77973276D02*
X113533180Y-78544704D01*
X113533180Y-78258990D02*
X112533180Y-78258990D01*
X112676038Y-78354228D01*
X112771276Y-78449466D01*
X112818895Y-78544704D01*
X112628419Y-77592323D02*
X112580800Y-77544704D01*
X112533180Y-77449466D01*
X112533180Y-77211371D01*
X112580800Y-77116133D01*
X112628419Y-77068514D01*
X112723657Y-77020895D01*
X112818895Y-77020895D01*
X112961752Y-77068514D01*
X113533180Y-77639942D01*
X113533180Y-77020895D01*
%TO.C,R7*%
X156043333Y-99672380D02*
X155710000Y-99196190D01*
X155471904Y-99672380D02*
X155471904Y-98672380D01*
X155852857Y-98672380D01*
X155948095Y-98720000D01*
X155995714Y-98767619D01*
X156043333Y-98862857D01*
X156043333Y-99005714D01*
X155995714Y-99100952D01*
X155948095Y-99148571D01*
X155852857Y-99196190D01*
X155471904Y-99196190D01*
X156376666Y-98672380D02*
X157043333Y-98672380D01*
X156614761Y-99672380D01*
%TO.C,Q3*%
X139904761Y-101547619D02*
X139809523Y-101500000D01*
X139714285Y-101404761D01*
X139571428Y-101261904D01*
X139476190Y-101214285D01*
X139380952Y-101214285D01*
X139428571Y-101452380D02*
X139333333Y-101404761D01*
X139238095Y-101309523D01*
X139190476Y-101119047D01*
X139190476Y-100785714D01*
X139238095Y-100595238D01*
X139333333Y-100500000D01*
X139428571Y-100452380D01*
X139619047Y-100452380D01*
X139714285Y-100500000D01*
X139809523Y-100595238D01*
X139857142Y-100785714D01*
X139857142Y-101119047D01*
X139809523Y-101309523D01*
X139714285Y-101404761D01*
X139619047Y-101452380D01*
X139428571Y-101452380D01*
X140190476Y-100452380D02*
X140809523Y-100452380D01*
X140476190Y-100833333D01*
X140619047Y-100833333D01*
X140714285Y-100880952D01*
X140761904Y-100928571D01*
X140809523Y-101023809D01*
X140809523Y-101261904D01*
X140761904Y-101357142D01*
X140714285Y-101404761D01*
X140619047Y-101452380D01*
X140333333Y-101452380D01*
X140238095Y-101404761D01*
X140190476Y-101357142D01*
%TO.C,L1*%
X183221333Y-79700380D02*
X182745142Y-79700380D01*
X182745142Y-78700380D01*
X184078476Y-79700380D02*
X183507047Y-79700380D01*
X183792761Y-79700380D02*
X183792761Y-78700380D01*
X183697523Y-78843238D01*
X183602285Y-78938476D01*
X183507047Y-78986095D01*
%TO.C,JP1*%
X130977380Y-87643333D02*
X131691666Y-87643333D01*
X131834523Y-87690952D01*
X131929761Y-87786190D01*
X131977380Y-87929047D01*
X131977380Y-88024285D01*
X131977380Y-87167142D02*
X130977380Y-87167142D01*
X130977380Y-86786190D01*
X131025000Y-86690952D01*
X131072619Y-86643333D01*
X131167857Y-86595714D01*
X131310714Y-86595714D01*
X131405952Y-86643333D01*
X131453571Y-86690952D01*
X131501190Y-86786190D01*
X131501190Y-87167142D01*
X131977380Y-85643333D02*
X131977380Y-86214761D01*
X131977380Y-85929047D02*
X130977380Y-85929047D01*
X131120238Y-86024285D01*
X131215476Y-86119523D01*
X131263095Y-86214761D01*
X134580380Y-85677333D02*
X134580380Y-85058285D01*
X134961333Y-85391619D01*
X134961333Y-85248761D01*
X135008952Y-85153523D01*
X135056571Y-85105904D01*
X135151809Y-85058285D01*
X135389904Y-85058285D01*
X135485142Y-85105904D01*
X135532761Y-85153523D01*
X135580380Y-85248761D01*
X135580380Y-85534476D01*
X135532761Y-85629714D01*
X135485142Y-85677333D01*
X135580380Y-88106285D02*
X135580380Y-88677714D01*
X135580380Y-88392000D02*
X134580380Y-88392000D01*
X134723238Y-88487238D01*
X134818476Y-88582476D01*
X134866095Y-88677714D01*
%TO.C,R17*%
X137486505Y-82794273D02*
X137010315Y-83127606D01*
X137486505Y-83365701D02*
X136486505Y-83365701D01*
X136486505Y-82984749D01*
X136534125Y-82889511D01*
X136581744Y-82841892D01*
X136676982Y-82794273D01*
X136819839Y-82794273D01*
X136915077Y-82841892D01*
X136962696Y-82889511D01*
X137010315Y-82984749D01*
X137010315Y-83365701D01*
X137486505Y-81841892D02*
X137486505Y-82413320D01*
X137486505Y-82127606D02*
X136486505Y-82127606D01*
X136629363Y-82222844D01*
X136724601Y-82318082D01*
X136772220Y-82413320D01*
X136486505Y-81508558D02*
X136486505Y-80841892D01*
X137486505Y-81270463D01*
%TO.C,C9*%
X119060933Y-111863142D02*
X119013314Y-111910761D01*
X118870457Y-111958380D01*
X118775219Y-111958380D01*
X118632361Y-111910761D01*
X118537123Y-111815523D01*
X118489504Y-111720285D01*
X118441885Y-111529809D01*
X118441885Y-111386952D01*
X118489504Y-111196476D01*
X118537123Y-111101238D01*
X118632361Y-111006000D01*
X118775219Y-110958380D01*
X118870457Y-110958380D01*
X119013314Y-111006000D01*
X119060933Y-111053619D01*
X119537123Y-111958380D02*
X119727600Y-111958380D01*
X119822838Y-111910761D01*
X119870457Y-111863142D01*
X119965695Y-111720285D01*
X120013314Y-111529809D01*
X120013314Y-111148857D01*
X119965695Y-111053619D01*
X119918076Y-111006000D01*
X119822838Y-110958380D01*
X119632361Y-110958380D01*
X119537123Y-111006000D01*
X119489504Y-111053619D01*
X119441885Y-111148857D01*
X119441885Y-111386952D01*
X119489504Y-111482190D01*
X119537123Y-111529809D01*
X119632361Y-111577428D01*
X119822838Y-111577428D01*
X119918076Y-111529809D01*
X119965695Y-111482190D01*
X120013314Y-111386952D01*
%TO.C,SW2*%
X131404761Y-100333333D02*
X131452380Y-100190476D01*
X131452380Y-99952380D01*
X131404761Y-99857142D01*
X131357142Y-99809523D01*
X131261904Y-99761904D01*
X131166666Y-99761904D01*
X131071428Y-99809523D01*
X131023809Y-99857142D01*
X130976190Y-99952380D01*
X130928571Y-100142857D01*
X130880952Y-100238095D01*
X130833333Y-100285714D01*
X130738095Y-100333333D01*
X130642857Y-100333333D01*
X130547619Y-100285714D01*
X130500000Y-100238095D01*
X130452380Y-100142857D01*
X130452380Y-99904761D01*
X130500000Y-99761904D01*
X130452380Y-99428571D02*
X131452380Y-99190476D01*
X130738095Y-99000000D01*
X131452380Y-98809523D01*
X130452380Y-98571428D01*
X130547619Y-98238095D02*
X130500000Y-98190476D01*
X130452380Y-98095238D01*
X130452380Y-97857142D01*
X130500000Y-97761904D01*
X130547619Y-97714285D01*
X130642857Y-97666666D01*
X130738095Y-97666666D01*
X130880952Y-97714285D01*
X131452380Y-98285714D01*
X131452380Y-97666666D01*
%TO.C,J1*%
X147748666Y-106640380D02*
X147748666Y-107354666D01*
X147701047Y-107497523D01*
X147605809Y-107592761D01*
X147462952Y-107640380D01*
X147367714Y-107640380D01*
X148748666Y-107640380D02*
X148177238Y-107640380D01*
X148462952Y-107640380D02*
X148462952Y-106640380D01*
X148367714Y-106783238D01*
X148272476Y-106878476D01*
X148177238Y-106926095D01*
%TO.C,C2*%
X168743333Y-100687142D02*
X168695714Y-100734761D01*
X168552857Y-100782380D01*
X168457619Y-100782380D01*
X168314761Y-100734761D01*
X168219523Y-100639523D01*
X168171904Y-100544285D01*
X168124285Y-100353809D01*
X168124285Y-100210952D01*
X168171904Y-100020476D01*
X168219523Y-99925238D01*
X168314761Y-99830000D01*
X168457619Y-99782380D01*
X168552857Y-99782380D01*
X168695714Y-99830000D01*
X168743333Y-99877619D01*
X169124285Y-99877619D02*
X169171904Y-99830000D01*
X169267142Y-99782380D01*
X169505238Y-99782380D01*
X169600476Y-99830000D01*
X169648095Y-99877619D01*
X169695714Y-99972857D01*
X169695714Y-100068095D01*
X169648095Y-100210952D01*
X169076666Y-100782380D01*
X169695714Y-100782380D01*
%TO.C,H4*%
X188823695Y-112771180D02*
X188823695Y-111771180D01*
X188823695Y-112247371D02*
X189395123Y-112247371D01*
X189395123Y-112771180D02*
X189395123Y-111771180D01*
X190299885Y-112104514D02*
X190299885Y-112771180D01*
X190061790Y-111723561D02*
X189823695Y-112437847D01*
X190442742Y-112437847D01*
%TO.C,R4*%
X189571333Y-108910380D02*
X189238000Y-108434190D01*
X188999904Y-108910380D02*
X188999904Y-107910380D01*
X189380857Y-107910380D01*
X189476095Y-107958000D01*
X189523714Y-108005619D01*
X189571333Y-108100857D01*
X189571333Y-108243714D01*
X189523714Y-108338952D01*
X189476095Y-108386571D01*
X189380857Y-108434190D01*
X188999904Y-108434190D01*
X190428476Y-108243714D02*
X190428476Y-108910380D01*
X190190380Y-107862761D02*
X189952285Y-108577047D01*
X190571333Y-108577047D01*
%TO.C,L2*%
X173061333Y-79547980D02*
X172585142Y-79547980D01*
X172585142Y-78547980D01*
X173347047Y-78643219D02*
X173394666Y-78595600D01*
X173489904Y-78547980D01*
X173728000Y-78547980D01*
X173823238Y-78595600D01*
X173870857Y-78643219D01*
X173918476Y-78738457D01*
X173918476Y-78833695D01*
X173870857Y-78976552D01*
X173299428Y-79547980D01*
X173918476Y-79547980D01*
%TO.C,Q2*%
X158702961Y-96850619D02*
X158607723Y-96803000D01*
X158512485Y-96707761D01*
X158369628Y-96564904D01*
X158274390Y-96517285D01*
X158179152Y-96517285D01*
X158226771Y-96755380D02*
X158131533Y-96707761D01*
X158036295Y-96612523D01*
X157988676Y-96422047D01*
X157988676Y-96088714D01*
X158036295Y-95898238D01*
X158131533Y-95803000D01*
X158226771Y-95755380D01*
X158417247Y-95755380D01*
X158512485Y-95803000D01*
X158607723Y-95898238D01*
X158655342Y-96088714D01*
X158655342Y-96422047D01*
X158607723Y-96612523D01*
X158512485Y-96707761D01*
X158417247Y-96755380D01*
X158226771Y-96755380D01*
X159036295Y-95850619D02*
X159083914Y-95803000D01*
X159179152Y-95755380D01*
X159417247Y-95755380D01*
X159512485Y-95803000D01*
X159560104Y-95850619D01*
X159607723Y-95945857D01*
X159607723Y-96041095D01*
X159560104Y-96183952D01*
X158988676Y-96755380D01*
X159607723Y-96755380D01*
%TO.C,D1*%
X184066404Y-89860380D02*
X184066404Y-88860380D01*
X184304500Y-88860380D01*
X184447357Y-88908000D01*
X184542595Y-89003238D01*
X184590214Y-89098476D01*
X184637833Y-89288952D01*
X184637833Y-89431809D01*
X184590214Y-89622285D01*
X184542595Y-89717523D01*
X184447357Y-89812761D01*
X184304500Y-89860380D01*
X184066404Y-89860380D01*
X185590214Y-89860380D02*
X185018785Y-89860380D01*
X185304500Y-89860380D02*
X185304500Y-88860380D01*
X185209261Y-89003238D01*
X185114023Y-89098476D01*
X185018785Y-89146095D01*
%TO.C,R14*%
X129992380Y-105798857D02*
X129516190Y-106132190D01*
X129992380Y-106370285D02*
X128992380Y-106370285D01*
X128992380Y-105989333D01*
X129040000Y-105894095D01*
X129087619Y-105846476D01*
X129182857Y-105798857D01*
X129325714Y-105798857D01*
X129420952Y-105846476D01*
X129468571Y-105894095D01*
X129516190Y-105989333D01*
X129516190Y-106370285D01*
X129992380Y-104846476D02*
X129992380Y-105417904D01*
X129992380Y-105132190D02*
X128992380Y-105132190D01*
X129135238Y-105227428D01*
X129230476Y-105322666D01*
X129278095Y-105417904D01*
X129325714Y-103989333D02*
X129992380Y-103989333D01*
X128944761Y-104227428D02*
X129659047Y-104465523D01*
X129659047Y-103846476D01*
%TO.C,R9*%
X121153180Y-78449466D02*
X120676990Y-78782800D01*
X121153180Y-79020895D02*
X120153180Y-79020895D01*
X120153180Y-78639942D01*
X120200800Y-78544704D01*
X120248419Y-78497085D01*
X120343657Y-78449466D01*
X120486514Y-78449466D01*
X120581752Y-78497085D01*
X120629371Y-78544704D01*
X120676990Y-78639942D01*
X120676990Y-79020895D01*
X121153180Y-77973276D02*
X121153180Y-77782800D01*
X121105561Y-77687561D01*
X121057942Y-77639942D01*
X120915085Y-77544704D01*
X120724609Y-77497085D01*
X120343657Y-77497085D01*
X120248419Y-77544704D01*
X120200800Y-77592323D01*
X120153180Y-77687561D01*
X120153180Y-77878038D01*
X120200800Y-77973276D01*
X120248419Y-78020895D01*
X120343657Y-78068514D01*
X120581752Y-78068514D01*
X120676990Y-78020895D01*
X120724609Y-77973276D01*
X120772228Y-77878038D01*
X120772228Y-77687561D01*
X120724609Y-77592323D01*
X120676990Y-77544704D01*
X120581752Y-77497085D01*
%TO.C,JP2*%
X137327380Y-87643333D02*
X138041666Y-87643333D01*
X138184523Y-87690952D01*
X138279761Y-87786190D01*
X138327380Y-87929047D01*
X138327380Y-88024285D01*
X138327380Y-87167142D02*
X137327380Y-87167142D01*
X137327380Y-86786190D01*
X137375000Y-86690952D01*
X137422619Y-86643333D01*
X137517857Y-86595714D01*
X137660714Y-86595714D01*
X137755952Y-86643333D01*
X137803571Y-86690952D01*
X137851190Y-86786190D01*
X137851190Y-87167142D01*
X137422619Y-86214761D02*
X137375000Y-86167142D01*
X137327380Y-86071904D01*
X137327380Y-85833809D01*
X137375000Y-85738571D01*
X137422619Y-85690952D01*
X137517857Y-85643333D01*
X137613095Y-85643333D01*
X137755952Y-85690952D01*
X138327380Y-86262380D01*
X138327380Y-85643333D01*
X139127380Y-84543333D02*
X139127380Y-83924285D01*
X139508333Y-84257619D01*
X139508333Y-84114761D01*
X139555952Y-84019523D01*
X139603571Y-83971904D01*
X139698809Y-83924285D01*
X139936904Y-83924285D01*
X140032142Y-83971904D01*
X140079761Y-84019523D01*
X140127380Y-84114761D01*
X140127380Y-84400476D01*
X140079761Y-84495714D01*
X140032142Y-84543333D01*
X140127380Y-89124285D02*
X140127380Y-89695714D01*
X140127380Y-89410000D02*
X139127380Y-89410000D01*
X139270238Y-89505238D01*
X139365476Y-89600476D01*
X139413095Y-89695714D01*
%TO.C,C5*%
X106360933Y-111710742D02*
X106313314Y-111758361D01*
X106170457Y-111805980D01*
X106075219Y-111805980D01*
X105932361Y-111758361D01*
X105837123Y-111663123D01*
X105789504Y-111567885D01*
X105741885Y-111377409D01*
X105741885Y-111234552D01*
X105789504Y-111044076D01*
X105837123Y-110948838D01*
X105932361Y-110853600D01*
X106075219Y-110805980D01*
X106170457Y-110805980D01*
X106313314Y-110853600D01*
X106360933Y-110901219D01*
X107265695Y-110805980D02*
X106789504Y-110805980D01*
X106741885Y-111282171D01*
X106789504Y-111234552D01*
X106884742Y-111186933D01*
X107122838Y-111186933D01*
X107218076Y-111234552D01*
X107265695Y-111282171D01*
X107313314Y-111377409D01*
X107313314Y-111615504D01*
X107265695Y-111710742D01*
X107218076Y-111758361D01*
X107122838Y-111805980D01*
X106884742Y-111805980D01*
X106789504Y-111758361D01*
X106741885Y-111710742D01*
%TO.C,C6*%
X106411733Y-109424742D02*
X106364114Y-109472361D01*
X106221257Y-109519980D01*
X106126019Y-109519980D01*
X105983161Y-109472361D01*
X105887923Y-109377123D01*
X105840304Y-109281885D01*
X105792685Y-109091409D01*
X105792685Y-108948552D01*
X105840304Y-108758076D01*
X105887923Y-108662838D01*
X105983161Y-108567600D01*
X106126019Y-108519980D01*
X106221257Y-108519980D01*
X106364114Y-108567600D01*
X106411733Y-108615219D01*
X107268876Y-108519980D02*
X107078400Y-108519980D01*
X106983161Y-108567600D01*
X106935542Y-108615219D01*
X106840304Y-108758076D01*
X106792685Y-108948552D01*
X106792685Y-109329504D01*
X106840304Y-109424742D01*
X106887923Y-109472361D01*
X106983161Y-109519980D01*
X107173638Y-109519980D01*
X107268876Y-109472361D01*
X107316495Y-109424742D01*
X107364114Y-109329504D01*
X107364114Y-109091409D01*
X107316495Y-108996171D01*
X107268876Y-108948552D01*
X107173638Y-108900933D01*
X106983161Y-108900933D01*
X106887923Y-108948552D01*
X106840304Y-108996171D01*
X106792685Y-109091409D01*
%TO.C,R10*%
X118613180Y-78925657D02*
X118136990Y-79258990D01*
X118613180Y-79497085D02*
X117613180Y-79497085D01*
X117613180Y-79116133D01*
X117660800Y-79020895D01*
X117708419Y-78973276D01*
X117803657Y-78925657D01*
X117946514Y-78925657D01*
X118041752Y-78973276D01*
X118089371Y-79020895D01*
X118136990Y-79116133D01*
X118136990Y-79497085D01*
X118613180Y-77973276D02*
X118613180Y-78544704D01*
X118613180Y-78258990D02*
X117613180Y-78258990D01*
X117756038Y-78354228D01*
X117851276Y-78449466D01*
X117898895Y-78544704D01*
X117613180Y-77354228D02*
X117613180Y-77258990D01*
X117660800Y-77163752D01*
X117708419Y-77116133D01*
X117803657Y-77068514D01*
X117994133Y-77020895D01*
X118232228Y-77020895D01*
X118422704Y-77068514D01*
X118517942Y-77116133D01*
X118565561Y-77163752D01*
X118613180Y-77258990D01*
X118613180Y-77354228D01*
X118565561Y-77449466D01*
X118517942Y-77497085D01*
X118422704Y-77544704D01*
X118232228Y-77592323D01*
X117994133Y-77592323D01*
X117803657Y-77544704D01*
X117708419Y-77497085D01*
X117660800Y-77449466D01*
X117613180Y-77354228D01*
%TO.C,J4*%
X178313666Y-105120380D02*
X178313666Y-105834666D01*
X178266047Y-105977523D01*
X178170809Y-106072761D01*
X178027952Y-106120380D01*
X177932714Y-106120380D01*
X179218428Y-105453714D02*
X179218428Y-106120380D01*
X178980333Y-105072761D02*
X178742238Y-105787047D01*
X179361285Y-105787047D01*
%TO.C,D5*%
X116022380Y-82475295D02*
X115022380Y-82475295D01*
X115022380Y-82237200D01*
X115070000Y-82094342D01*
X115165238Y-81999104D01*
X115260476Y-81951485D01*
X115450952Y-81903866D01*
X115593809Y-81903866D01*
X115784285Y-81951485D01*
X115879523Y-81999104D01*
X115974761Y-82094342D01*
X116022380Y-82237200D01*
X116022380Y-82475295D01*
X115022380Y-80999104D02*
X115022380Y-81475295D01*
X115498571Y-81522914D01*
X115450952Y-81475295D01*
X115403333Y-81380057D01*
X115403333Y-81141961D01*
X115450952Y-81046723D01*
X115498571Y-80999104D01*
X115593809Y-80951485D01*
X115831904Y-80951485D01*
X115927142Y-80999104D01*
X115974761Y-81046723D01*
X116022380Y-81141961D01*
X116022380Y-81380057D01*
X115974761Y-81475295D01*
X115927142Y-81522914D01*
%TO.C,C7*%
X161276833Y-104657142D02*
X161229214Y-104704761D01*
X161086357Y-104752380D01*
X160991119Y-104752380D01*
X160848261Y-104704761D01*
X160753023Y-104609523D01*
X160705404Y-104514285D01*
X160657785Y-104323809D01*
X160657785Y-104180952D01*
X160705404Y-103990476D01*
X160753023Y-103895238D01*
X160848261Y-103800000D01*
X160991119Y-103752380D01*
X161086357Y-103752380D01*
X161229214Y-103800000D01*
X161276833Y-103847619D01*
X161610166Y-103752380D02*
X162276833Y-103752380D01*
X161848261Y-104752380D01*
%TO.C,H1*%
X185166095Y-77617580D02*
X185166095Y-76617580D01*
X185166095Y-77093771D02*
X185737523Y-77093771D01*
X185737523Y-77617580D02*
X185737523Y-76617580D01*
X186737523Y-77617580D02*
X186166095Y-77617580D01*
X186451809Y-77617580D02*
X186451809Y-76617580D01*
X186356571Y-76760438D01*
X186261333Y-76855676D01*
X186166095Y-76903295D01*
%TO.C,H2*%
X101904895Y-113126780D02*
X101904895Y-112126780D01*
X101904895Y-112602971D02*
X102476323Y-112602971D01*
X102476323Y-113126780D02*
X102476323Y-112126780D01*
X102904895Y-112222019D02*
X102952514Y-112174400D01*
X103047752Y-112126780D01*
X103285847Y-112126780D01*
X103381085Y-112174400D01*
X103428704Y-112222019D01*
X103476323Y-112317257D01*
X103476323Y-112412495D01*
X103428704Y-112555352D01*
X102857276Y-113126780D01*
X103476323Y-113126780D01*
%TO.C,D6*%
X113533180Y-82468095D02*
X112533180Y-82468095D01*
X112533180Y-82230000D01*
X112580800Y-82087142D01*
X112676038Y-81991904D01*
X112771276Y-81944285D01*
X112961752Y-81896666D01*
X113104609Y-81896666D01*
X113295085Y-81944285D01*
X113390323Y-81991904D01*
X113485561Y-82087142D01*
X113533180Y-82230000D01*
X113533180Y-82468095D01*
X112533180Y-81039523D02*
X112533180Y-81230000D01*
X112580800Y-81325238D01*
X112628419Y-81372857D01*
X112771276Y-81468095D01*
X112961752Y-81515714D01*
X113342704Y-81515714D01*
X113437942Y-81468095D01*
X113485561Y-81420476D01*
X113533180Y-81325238D01*
X113533180Y-81134761D01*
X113485561Y-81039523D01*
X113437942Y-80991904D01*
X113342704Y-80944285D01*
X113104609Y-80944285D01*
X113009371Y-80991904D01*
X112961752Y-81039523D01*
X112914133Y-81134761D01*
X112914133Y-81325238D01*
X112961752Y-81420476D01*
X113009371Y-81468095D01*
X113104609Y-81515714D01*
%TO.C,J6*%
X152106380Y-78311333D02*
X152820666Y-78311333D01*
X152963523Y-78358952D01*
X153058761Y-78454190D01*
X153106380Y-78597047D01*
X153106380Y-78692285D01*
X152106380Y-77406571D02*
X152106380Y-77597047D01*
X152154000Y-77692285D01*
X152201619Y-77739904D01*
X152344476Y-77835142D01*
X152534952Y-77882761D01*
X152915904Y-77882761D01*
X153011142Y-77835142D01*
X153058761Y-77787523D01*
X153106380Y-77692285D01*
X153106380Y-77501809D01*
X153058761Y-77406571D01*
X153011142Y-77358952D01*
X152915904Y-77311333D01*
X152677809Y-77311333D01*
X152582571Y-77358952D01*
X152534952Y-77406571D01*
X152487333Y-77501809D01*
X152487333Y-77692285D01*
X152534952Y-77787523D01*
X152582571Y-77835142D01*
X152677809Y-77882761D01*
%TO.C,C4*%
X168997333Y-106783142D02*
X168949714Y-106830761D01*
X168806857Y-106878380D01*
X168711619Y-106878380D01*
X168568761Y-106830761D01*
X168473523Y-106735523D01*
X168425904Y-106640285D01*
X168378285Y-106449809D01*
X168378285Y-106306952D01*
X168425904Y-106116476D01*
X168473523Y-106021238D01*
X168568761Y-105926000D01*
X168711619Y-105878380D01*
X168806857Y-105878380D01*
X168949714Y-105926000D01*
X168997333Y-105973619D01*
X169854476Y-106211714D02*
X169854476Y-106878380D01*
X169616380Y-105830761D02*
X169378285Y-106545047D01*
X169997333Y-106545047D01*
%TO.C,R11*%
X116073180Y-78925657D02*
X115596990Y-79258990D01*
X116073180Y-79497085D02*
X115073180Y-79497085D01*
X115073180Y-79116133D01*
X115120800Y-79020895D01*
X115168419Y-78973276D01*
X115263657Y-78925657D01*
X115406514Y-78925657D01*
X115501752Y-78973276D01*
X115549371Y-79020895D01*
X115596990Y-79116133D01*
X115596990Y-79497085D01*
X116073180Y-77973276D02*
X116073180Y-78544704D01*
X116073180Y-78258990D02*
X115073180Y-78258990D01*
X115216038Y-78354228D01*
X115311276Y-78449466D01*
X115358895Y-78544704D01*
X116073180Y-77020895D02*
X116073180Y-77592323D01*
X116073180Y-77306609D02*
X115073180Y-77306609D01*
X115216038Y-77401847D01*
X115311276Y-77497085D01*
X115358895Y-77592323D01*
%TO.C,C8*%
X112794642Y-110669166D02*
X112842261Y-110716785D01*
X112889880Y-110859642D01*
X112889880Y-110954880D01*
X112842261Y-111097738D01*
X112747023Y-111192976D01*
X112651785Y-111240595D01*
X112461309Y-111288214D01*
X112318452Y-111288214D01*
X112127976Y-111240595D01*
X112032738Y-111192976D01*
X111937500Y-111097738D01*
X111889880Y-110954880D01*
X111889880Y-110859642D01*
X111937500Y-110716785D01*
X111985119Y-110669166D01*
X112318452Y-110097738D02*
X112270833Y-110192976D01*
X112223214Y-110240595D01*
X112127976Y-110288214D01*
X112080357Y-110288214D01*
X111985119Y-110240595D01*
X111937500Y-110192976D01*
X111889880Y-110097738D01*
X111889880Y-109907261D01*
X111937500Y-109812023D01*
X111985119Y-109764404D01*
X112080357Y-109716785D01*
X112127976Y-109716785D01*
X112223214Y-109764404D01*
X112270833Y-109812023D01*
X112318452Y-109907261D01*
X112318452Y-110097738D01*
X112366071Y-110192976D01*
X112413690Y-110240595D01*
X112508928Y-110288214D01*
X112699404Y-110288214D01*
X112794642Y-110240595D01*
X112842261Y-110192976D01*
X112889880Y-110097738D01*
X112889880Y-109907261D01*
X112842261Y-109812023D01*
X112794642Y-109764404D01*
X112699404Y-109716785D01*
X112508928Y-109716785D01*
X112413690Y-109764404D01*
X112366071Y-109812023D01*
X112318452Y-109907261D01*
%TO.C,R13*%
X110993180Y-78925657D02*
X110516990Y-79258990D01*
X110993180Y-79497085D02*
X109993180Y-79497085D01*
X109993180Y-79116133D01*
X110040800Y-79020895D01*
X110088419Y-78973276D01*
X110183657Y-78925657D01*
X110326514Y-78925657D01*
X110421752Y-78973276D01*
X110469371Y-79020895D01*
X110516990Y-79116133D01*
X110516990Y-79497085D01*
X110993180Y-77973276D02*
X110993180Y-78544704D01*
X110993180Y-78258990D02*
X109993180Y-78258990D01*
X110136038Y-78354228D01*
X110231276Y-78449466D01*
X110278895Y-78544704D01*
X109993180Y-77639942D02*
X109993180Y-77020895D01*
X110374133Y-77354228D01*
X110374133Y-77211371D01*
X110421752Y-77116133D01*
X110469371Y-77068514D01*
X110564609Y-77020895D01*
X110802704Y-77020895D01*
X110897942Y-77068514D01*
X110945561Y-77116133D01*
X110993180Y-77211371D01*
X110993180Y-77497085D01*
X110945561Y-77592323D01*
X110897942Y-77639942D01*
%TO.C,U1*%
X103327295Y-87742780D02*
X103327295Y-88552304D01*
X103374914Y-88647542D01*
X103422533Y-88695161D01*
X103517771Y-88742780D01*
X103708247Y-88742780D01*
X103803485Y-88695161D01*
X103851104Y-88647542D01*
X103898723Y-88552304D01*
X103898723Y-87742780D01*
X104898723Y-88742780D02*
X104327295Y-88742780D01*
X104613009Y-88742780D02*
X104613009Y-87742780D01*
X104517771Y-87885638D01*
X104422533Y-87980876D01*
X104327295Y-88028495D01*
D16*
%TO.C,D4*%
X118620000Y-80930000D02*
X118620000Y-83215000D01*
X120090000Y-83215000D02*
X120090000Y-80930000D01*
X118620000Y-83215000D02*
X120090000Y-83215000D01*
%TO.C,R1*%
X166624724Y-85837500D02*
X166115276Y-85837500D01*
X166624724Y-86882500D02*
X166115276Y-86882500D01*
%TO.C,D3*%
X121160000Y-80930000D02*
X121160000Y-83215000D01*
X121160000Y-83215000D02*
X122630000Y-83215000D01*
X122630000Y-83215000D02*
X122630000Y-80930000D01*
%TO.C,J9*%
X144120000Y-84330000D02*
X151800000Y-84330000D01*
X144120000Y-84330000D02*
X144120000Y-81670000D01*
X144120000Y-81670000D02*
X151800000Y-81670000D01*
X151800000Y-84330000D02*
X151800000Y-81670000D01*
X142850000Y-84330000D02*
X141520000Y-84330000D01*
X141520000Y-84330000D02*
X141520000Y-83000000D01*
%TO.C,R3*%
X181415000Y-100533436D02*
X181415000Y-104887564D01*
X177995000Y-100533436D02*
X177995000Y-104887564D01*
%TO.C,C3*%
X156183000Y-101592748D02*
X156183000Y-102115252D01*
X154713000Y-101592748D02*
X154713000Y-102115252D01*
%TO.C,C1*%
X143283000Y-102115252D02*
X143283000Y-101592748D01*
X144753000Y-102115252D02*
X144753000Y-101592748D01*
%TO.C,J2*%
X153310000Y-108674000D02*
X153310000Y-107424000D01*
X153310000Y-107424000D02*
X155310000Y-107424000D01*
X153610000Y-107724000D02*
X163810000Y-107724000D01*
X163810000Y-107724000D02*
X163810000Y-119024000D01*
X163810000Y-119024000D02*
X153610000Y-119024000D01*
X153610000Y-119024000D02*
X153610000Y-107724000D01*
%TO.C,J7*%
X132990000Y-107424000D02*
X134990000Y-107424000D01*
X132990000Y-108674000D02*
X132990000Y-107424000D01*
X133290000Y-107724000D02*
X143490000Y-107724000D01*
X143490000Y-107724000D02*
X143490000Y-119024000D01*
X143490000Y-119024000D02*
X133290000Y-119024000D01*
X133290000Y-119024000D02*
X133290000Y-107724000D01*
%TO.C,R16*%
X139051625Y-82406140D02*
X139051625Y-81896692D01*
X140096625Y-82406140D02*
X140096625Y-81896692D01*
%TO.C,J3*%
X125705000Y-79250000D02*
X124375000Y-79250000D01*
X126975000Y-79250000D02*
X139735000Y-79250000D01*
X126975000Y-79250000D02*
X126975000Y-76590000D01*
X139735000Y-79250000D02*
X139735000Y-76590000D01*
X124375000Y-79250000D02*
X124375000Y-77920000D01*
X126975000Y-76590000D02*
X139735000Y-76590000D01*
%TO.C,Q1*%
X167350000Y-88030000D02*
X173360000Y-88030000D01*
X173360000Y-88030000D02*
X173360000Y-89290000D01*
X173360000Y-94850000D02*
X173360000Y-93590000D01*
X169600000Y-94850000D02*
X173360000Y-94850000D01*
%TO.C,R5*%
X165114500Y-101599276D02*
X165114500Y-102108724D01*
X164069500Y-101599276D02*
X164069500Y-102108724D01*
%TO.C,R6*%
X161188776Y-101360500D02*
X161698224Y-101360500D01*
X161188776Y-100315500D02*
X161698224Y-100315500D01*
%TO.C,D7*%
X111000000Y-80930000D02*
X111000000Y-83215000D01*
X112470000Y-83215000D02*
X112470000Y-80930000D01*
X111000000Y-83215000D02*
X112470000Y-83215000D01*
%TO.C,R15*%
X130541500Y-108444724D02*
X130541500Y-107935276D01*
X131586500Y-108444724D02*
X131586500Y-107935276D01*
%TO.C,J5*%
X153585000Y-76590000D02*
X153585000Y-79250000D01*
X161265000Y-76590000D02*
X153585000Y-76590000D01*
X161265000Y-76590000D02*
X161265000Y-79250000D01*
X163865000Y-76590000D02*
X163865000Y-77920000D01*
X162535000Y-76590000D02*
X163865000Y-76590000D01*
X161265000Y-79250000D02*
X153585000Y-79250000D01*
%TO.C,R8*%
X116202776Y-108937500D02*
X116712224Y-108937500D01*
X116202776Y-109982500D02*
X116712224Y-109982500D01*
%TO.C,R2*%
X123912500Y-82619724D02*
X123912500Y-82110276D01*
X124957500Y-82619724D02*
X124957500Y-82110276D01*
%TO.C,U2*%
X153270000Y-97658000D02*
X152010000Y-97658000D01*
X153270000Y-101418000D02*
X153270000Y-97658000D01*
X146450000Y-97658000D02*
X147710000Y-97658000D01*
X146450000Y-103668000D02*
X146450000Y-97658000D01*
%TO.C,D2*%
X127385000Y-81350000D02*
X132785000Y-81350000D01*
X127385000Y-81350000D02*
X127385000Y-84650000D01*
X127385000Y-84650000D02*
X132785000Y-84650000D01*
%TO.C,J8*%
X121005000Y-119710000D02*
X130405000Y-119710000D01*
X130405000Y-117810000D02*
X130405000Y-119710000D01*
X121005000Y-113910000D02*
X121005000Y-115910000D01*
X130405000Y-113910000D02*
X130405000Y-115910000D01*
X121005000Y-117810000D02*
X121005000Y-119710000D01*
%TO.C,J10*%
X161265000Y-81670000D02*
X153585000Y-81670000D01*
X161265000Y-84330000D02*
X153585000Y-84330000D01*
X153585000Y-81670000D02*
X153585000Y-84330000D01*
X161265000Y-81670000D02*
X161265000Y-84330000D01*
X163865000Y-81670000D02*
X163865000Y-83000000D01*
X162535000Y-81670000D02*
X163865000Y-81670000D01*
%TO.C,SW1*%
X117505000Y-119040000D02*
X111045000Y-119040000D01*
X117505000Y-117110000D02*
X117505000Y-114510000D01*
X111045000Y-119040000D02*
X111045000Y-119010000D01*
X111045000Y-117110000D02*
X111045000Y-114510000D01*
X117505000Y-112580000D02*
X111045000Y-112580000D01*
X111045000Y-112580000D02*
X111045000Y-112610000D01*
X117505000Y-119010000D02*
X117505000Y-119040000D01*
X117505000Y-112580000D02*
X117505000Y-112610000D01*
%TO.C,R12*%
X113752500Y-78022776D02*
X113752500Y-78532224D01*
X114797500Y-78022776D02*
X114797500Y-78532224D01*
%TO.C,R7*%
X156464724Y-98312500D02*
X155955276Y-98312500D01*
X156464724Y-97267500D02*
X155955276Y-97267500D01*
%TO.C,Q3*%
X137158000Y-103942000D02*
X137158000Y-103012000D01*
X137158000Y-103942000D02*
X135698000Y-103942000D01*
X137158000Y-100782000D02*
X137158000Y-101712000D01*
X137158000Y-100782000D02*
X133998000Y-100782000D01*
%TO.C,L1*%
X185162725Y-84420000D02*
X185162725Y-83220000D01*
X179562725Y-83220000D02*
X179562725Y-84420000D01*
%TO.C,JP1*%
X133025000Y-84760000D02*
X133625000Y-84760000D01*
X134325000Y-85410000D02*
X134325000Y-88210000D01*
X132325000Y-88210000D02*
X132325000Y-85410000D01*
X133625000Y-88860000D02*
X133025000Y-88860000D01*
X133625000Y-88860000D02*
G75*
G03*
X134325000Y-88160000I1J699999D01*
G01*
X134325000Y-85460000D02*
G75*
G03*
X133625000Y-84760000I-700000J0D01*
G01*
X132325000Y-88160000D02*
G75*
G03*
X133025000Y-88860000I699999J-1D01*
G01*
X133025000Y-84760000D02*
G75*
G03*
X132325000Y-85460000I0J-700000D01*
G01*
%TO.C,R17*%
X137811625Y-82406140D02*
X137811625Y-81896692D01*
X138856625Y-82406140D02*
X138856625Y-81896692D01*
%TO.C,C9*%
X116414733Y-110855000D02*
X116707267Y-110855000D01*
X116414733Y-111875000D02*
X116707267Y-111875000D01*
%TO.C,SW2*%
X140390000Y-93530000D02*
X140390000Y-93560000D01*
X140390000Y-98060000D02*
X140390000Y-95460000D01*
X133930000Y-98060000D02*
X133930000Y-95460000D01*
X133930000Y-93530000D02*
X133930000Y-93560000D01*
X140390000Y-93530000D02*
X133930000Y-93530000D01*
X133930000Y-99990000D02*
X133930000Y-99960000D01*
X140390000Y-99990000D02*
X133930000Y-99990000D01*
X140390000Y-99960000D02*
X140390000Y-99990000D01*
%TO.C,J1*%
X143150000Y-108674000D02*
X143150000Y-107424000D01*
X143150000Y-107424000D02*
X145150000Y-107424000D01*
X143450000Y-107724000D02*
X153650000Y-107724000D01*
X153650000Y-107724000D02*
X153650000Y-119024000D01*
X153650000Y-119024000D02*
X143450000Y-119024000D01*
X143450000Y-119024000D02*
X143450000Y-107724000D01*
%TO.C,C2*%
X174389252Y-97096000D02*
X172066748Y-97096000D01*
X174389252Y-100516000D02*
X172066748Y-100516000D01*
%TO.C,R4*%
X184777099Y-103413469D02*
X189131227Y-103413469D01*
X184777099Y-106833469D02*
X189131227Y-106833469D01*
%TO.C,L2*%
X183170000Y-83780000D02*
G75*
G03*
X183170000Y-83780000I-5370000J0D01*
G01*
%TO.C,Q2*%
X160022000Y-96210000D02*
X161482000Y-96210000D01*
X160022000Y-99370000D02*
X163182000Y-99370000D01*
X160022000Y-99370000D02*
X160022000Y-98440000D01*
X160022000Y-96210000D02*
X160022000Y-97140000D01*
%TO.C,D1*%
X178106000Y-98780000D02*
X178106000Y-90380000D01*
X184606000Y-98780000D02*
X184606000Y-90380000D01*
X184606000Y-98780000D02*
X178106000Y-98780000D01*
%TO.C,R14*%
X130037500Y-108444724D02*
X130037500Y-107935276D01*
X128992500Y-108444724D02*
X128992500Y-107935276D01*
%TO.C,R9*%
X122417500Y-78022776D02*
X122417500Y-78532224D01*
X121372500Y-78022776D02*
X121372500Y-78532224D01*
%TO.C,JP2*%
X139975000Y-88860000D02*
X139375000Y-88860000D01*
X140675000Y-85410000D02*
X140675000Y-88210000D01*
X138675000Y-88210000D02*
X138675000Y-85410000D01*
X139375000Y-84760000D02*
X139975000Y-84760000D01*
X139975000Y-88860000D02*
G75*
G03*
X140675000Y-88160000I1J699999D01*
G01*
X140675000Y-85460000D02*
G75*
G03*
X139975000Y-84760000I-700000J0D01*
G01*
X139375000Y-84760000D02*
G75*
G03*
X138675000Y-85460000I0J-700000D01*
G01*
X138675000Y-88160000D02*
G75*
G03*
X139375000Y-88860000I699999J-1D01*
G01*
%TO.C,C5*%
X109964252Y-111683000D02*
X109441748Y-111683000D01*
X109964252Y-110213000D02*
X109441748Y-110213000D01*
%TO.C,C6*%
X109849267Y-109426000D02*
X109556733Y-109426000D01*
X109849267Y-108406000D02*
X109556733Y-108406000D01*
%TO.C,R10*%
X118832500Y-78022776D02*
X118832500Y-78532224D01*
X119877500Y-78022776D02*
X119877500Y-78532224D01*
%TO.C,J4*%
X173630000Y-108634000D02*
X173630000Y-107384000D01*
X173630000Y-107384000D02*
X175630000Y-107384000D01*
X173930000Y-107684000D02*
X184130000Y-107684000D01*
X184130000Y-107684000D02*
X184130000Y-118984000D01*
X184130000Y-118984000D02*
X173930000Y-118984000D01*
X173930000Y-118984000D02*
X173930000Y-107684000D01*
%TO.C,D5*%
X116080000Y-80930000D02*
X116080000Y-83215000D01*
X116080000Y-83215000D02*
X117550000Y-83215000D01*
X117550000Y-83215000D02*
X117550000Y-80930000D01*
%TO.C,C7*%
X161589767Y-102360000D02*
X161297233Y-102360000D01*
X161589767Y-103380000D02*
X161297233Y-103380000D01*
%TO.C,D6*%
X113540000Y-80930000D02*
X113540000Y-83215000D01*
X113540000Y-83215000D02*
X115010000Y-83215000D01*
X115010000Y-83215000D02*
X115010000Y-80930000D01*
%TO.C,J6*%
X151800000Y-79250000D02*
X151800000Y-76590000D01*
X144120000Y-76590000D02*
X151800000Y-76590000D01*
X144120000Y-79250000D02*
X144120000Y-76590000D01*
X142850000Y-79250000D02*
X141520000Y-79250000D01*
X144120000Y-79250000D02*
X151800000Y-79250000D01*
X141520000Y-79250000D02*
X141520000Y-77920000D01*
%TO.C,C4*%
X174369752Y-106612000D02*
X172047248Y-106612000D01*
X174369752Y-103192000D02*
X172047248Y-103192000D01*
%TO.C,R11*%
X116292500Y-78022776D02*
X116292500Y-78532224D01*
X117337500Y-78022776D02*
X117337500Y-78532224D01*
%TO.C,C8*%
X114377500Y-110648767D02*
X114377500Y-110356233D01*
X113357500Y-110648767D02*
X113357500Y-110356233D01*
%TO.C,R13*%
X111212500Y-78022776D02*
X111212500Y-78532224D01*
X112257500Y-78022776D02*
X112257500Y-78532224D01*
%TO.C,U1*%
X126470000Y-107580000D02*
X127250000Y-107580000D01*
X127250000Y-107580000D02*
X127250000Y-106580000D01*
X101505000Y-107580000D02*
X101505000Y-89340000D01*
X101505000Y-107580000D02*
X107925000Y-107580000D01*
X101505000Y-89340000D02*
X107925000Y-89340000D01*
X127250000Y-89340000D02*
X127250000Y-90340000D01*
X107925000Y-107580000D02*
X107925000Y-107960000D01*
X126470000Y-89340000D02*
X127250000Y-89340000D01*
%TD*%
M02*
