%TF.GenerationSoftware,KiCad,Pcbnew,(6.0.7)*%
%TF.CreationDate,2022-11-03T13:34:30+01:00*%
%TF.ProjectId,opengeiger_ROUND,6f70656e-6765-4696-9765-725f524f554e,rev?*%
%TF.SameCoordinates,Original*%
%TF.FileFunction,Soldermask,Top*%
%TF.FilePolarity,Negative*%
%FSLAX46Y46*%
G04 Gerber Fmt 4.6, Leading zero omitted, Abs format (unit mm)*
G04 Created by KiCad (PCBNEW (6.0.7)) date 2022-11-03 13:34:30*
%MOMM*%
%LPD*%
G01*
G04 APERTURE LIST*
G04 Aperture macros list*
%AMRoundRect*
0 Rectangle with rounded corners*
0 $1 Rounding radius*
0 $2 $3 $4 $5 $6 $7 $8 $9 X,Y pos of 4 corners*
0 Add a 4 corners polygon primitive as box body*
4,1,4,$2,$3,$4,$5,$6,$7,$8,$9,$2,$3,0*
0 Add four circle primitives for the rounded corners*
1,1,$1+$1,$2,$3*
1,1,$1+$1,$4,$5*
1,1,$1+$1,$6,$7*
1,1,$1+$1,$8,$9*
0 Add four rect primitives between the rounded corners*
20,1,$1+$1,$2,$3,$4,$5,0*
20,1,$1+$1,$4,$5,$6,$7,0*
20,1,$1+$1,$6,$7,$8,$9,0*
20,1,$1+$1,$8,$9,$2,$3,0*%
%AMFreePoly0*
4,1,22,0.550000,-0.750000,0.000000,-0.750000,0.000000,-0.745033,-0.079941,-0.743568,-0.215256,-0.701293,-0.333266,-0.622738,-0.424486,-0.514219,-0.481581,-0.384460,-0.499164,-0.250000,-0.500000,-0.250000,-0.500000,0.250000,-0.499164,0.250000,-0.499963,0.256109,-0.478152,0.396186,-0.417904,0.524511,-0.324060,0.630769,-0.204165,0.706417,-0.067858,0.745374,0.000000,0.744959,0.000000,0.750000,
0.550000,0.750000,0.550000,-0.750000,0.550000,-0.750000,$1*%
%AMFreePoly1*
4,1,20,0.000000,0.744959,0.073905,0.744508,0.209726,0.703889,0.328688,0.626782,0.421226,0.519385,0.479903,0.390333,0.500000,0.250000,0.500000,-0.250000,0.499851,-0.262216,0.476331,-0.402017,0.414519,-0.529596,0.319384,-0.634700,0.198574,-0.708877,0.061801,-0.746166,0.000000,-0.745033,0.000000,-0.750000,-0.550000,-0.750000,-0.550000,0.750000,0.000000,0.750000,0.000000,0.744959,
0.000000,0.744959,$1*%
G04 Aperture macros list end*
%ADD10RoundRect,0.218750X0.256250X-0.218750X0.256250X0.218750X-0.256250X0.218750X-0.256250X-0.218750X0*%
%ADD11RoundRect,0.237500X0.250000X0.237500X-0.250000X0.237500X-0.250000X-0.237500X0.250000X-0.237500X0*%
%ADD12R,1.700000X1.700000*%
%ADD13O,1.700000X1.700000*%
%ADD14RoundRect,0.250000X-1.425000X0.362500X-1.425000X-0.362500X1.425000X-0.362500X1.425000X0.362500X0*%
%ADD15RoundRect,0.250000X-0.475000X0.337500X-0.475000X-0.337500X0.475000X-0.337500X0.475000X0.337500X0*%
%ADD16RoundRect,0.250000X0.475000X-0.337500X0.475000X0.337500X-0.475000X0.337500X-0.475000X-0.337500X0*%
%ADD17RoundRect,0.305556X-0.794444X-1.494444X0.794444X-1.494444X0.794444X1.494444X-0.794444X1.494444X0*%
%ADD18O,2.200000X3.600000*%
%ADD19RoundRect,0.237500X0.237500X-0.250000X0.237500X0.250000X-0.237500X0.250000X-0.237500X-0.250000X0*%
%ADD20R,2.000000X1.500000*%
%ADD21R,2.000000X3.800000*%
%ADD22RoundRect,0.237500X-0.237500X0.250000X-0.237500X-0.250000X0.237500X-0.250000X0.237500X0.250000X0*%
%ADD23RoundRect,0.237500X-0.250000X-0.237500X0.250000X-0.237500X0.250000X0.237500X-0.250000X0.237500X0*%
%ADD24C,5.000000*%
%ADD25R,1.500000X2.000000*%
%ADD26R,3.800000X2.000000*%
%ADD27R,2.500000X1.800000*%
%ADD28C,0.650000*%
%ADD29R,0.600000X1.450000*%
%ADD30R,0.300000X1.450000*%
%ADD31O,1.000000X1.600000*%
%ADD32O,1.000000X2.100000*%
%ADD33R,1.550000X1.300000*%
%ADD34R,1.900000X0.800000*%
%ADD35R,5.500000X2.150000*%
%ADD36FreePoly0,90.000000*%
%ADD37R,1.500000X1.000000*%
%ADD38FreePoly1,90.000000*%
%ADD39RoundRect,0.237500X-0.300000X-0.237500X0.300000X-0.237500X0.300000X0.237500X-0.300000X0.237500X0*%
%ADD40RoundRect,0.249999X0.450001X1.450001X-0.450001X1.450001X-0.450001X-1.450001X0.450001X-1.450001X0*%
%ADD41RoundRect,0.250000X-0.362500X-1.425000X0.362500X-1.425000X0.362500X1.425000X-0.362500X1.425000X0*%
%ADD42C,2.600000*%
%ADD43R,3.300000X2.500000*%
%ADD44RoundRect,0.250000X0.337500X0.475000X-0.337500X0.475000X-0.337500X-0.475000X0.337500X-0.475000X0*%
%ADD45RoundRect,0.237500X0.300000X0.237500X-0.300000X0.237500X-0.300000X-0.237500X0.300000X-0.237500X0*%
%ADD46RoundRect,0.237500X0.237500X-0.300000X0.237500X0.300000X-0.237500X0.300000X-0.237500X-0.300000X0*%
%ADD47R,0.900000X2.000000*%
%ADD48R,2.000000X0.900000*%
%ADD49R,5.000000X5.000000*%
G04 APERTURE END LIST*
D10*
%TO.C,D4*%
X119355000Y-82517500D03*
X119355000Y-80942500D03*
%TD*%
D11*
%TO.C,R1*%
X167282500Y-86360000D03*
X165457500Y-86360000D03*
%TD*%
D10*
%TO.C,D3*%
X121895000Y-82517500D03*
X121895000Y-80942500D03*
%TD*%
D12*
%TO.C,J9*%
X142850000Y-83000000D03*
D13*
X145390000Y-83000000D03*
X147930000Y-83000000D03*
X150470000Y-83000000D03*
%TD*%
D14*
%TO.C,R3*%
X179705000Y-99748000D03*
X179705000Y-105673000D03*
%TD*%
D15*
%TO.C,C3*%
X155448000Y-100816500D03*
X155448000Y-102891500D03*
%TD*%
D16*
%TO.C,C1*%
X144018000Y-102891500D03*
X144018000Y-100816500D03*
%TD*%
D17*
%TO.C,J2*%
X156210000Y-113324000D03*
D18*
X161290000Y-113324000D03*
%TD*%
D17*
%TO.C,J7*%
X135890000Y-113324000D03*
D18*
X140970000Y-113324000D03*
%TD*%
D19*
%TO.C,R16*%
X139574125Y-83063916D03*
X139574125Y-81238916D03*
%TD*%
D12*
%TO.C,J3*%
X125705000Y-77920000D03*
D13*
X128245000Y-77920000D03*
X130785000Y-77920000D03*
X133325000Y-77920000D03*
X135865000Y-77920000D03*
X138405000Y-77920000D03*
%TD*%
D20*
%TO.C,Q1*%
X168300000Y-91440000D03*
X168300000Y-89140000D03*
X168300000Y-93740000D03*
D21*
X174600000Y-91440000D03*
%TD*%
D22*
%TO.C,R5*%
X164592000Y-100941500D03*
X164592000Y-102766500D03*
%TD*%
D23*
%TO.C,R6*%
X160531000Y-100838000D03*
X162356000Y-100838000D03*
%TD*%
D10*
%TO.C,D7*%
X111735000Y-82517500D03*
X111735000Y-80942500D03*
%TD*%
D24*
%TO.C,H3*%
X104535000Y-79000000D03*
%TD*%
D19*
%TO.C,R15*%
X131064000Y-109102500D03*
X131064000Y-107277500D03*
%TD*%
D12*
%TO.C,J5*%
X162535000Y-77920000D03*
D13*
X159995000Y-77920000D03*
X157455000Y-77920000D03*
X154915000Y-77920000D03*
%TD*%
D23*
%TO.C,R8*%
X115545000Y-109460000D03*
X117370000Y-109460000D03*
%TD*%
D19*
%TO.C,R2*%
X124435000Y-83277500D03*
X124435000Y-81452500D03*
%TD*%
D25*
%TO.C,U2*%
X147560000Y-102718000D03*
D26*
X149860000Y-96418000D03*
D25*
X149860000Y-102718000D03*
X152160000Y-102718000D03*
%TD*%
D27*
%TO.C,D2*%
X128785000Y-83000000D03*
X132785000Y-83000000D03*
%TD*%
D28*
%TO.C,J8*%
X128595000Y-113210000D03*
X122815000Y-113210000D03*
D29*
X122455000Y-111765000D03*
X123255000Y-111765000D03*
D30*
X124455000Y-111765000D03*
X125455000Y-111765000D03*
X125955000Y-111765000D03*
X126955000Y-111765000D03*
D29*
X128155000Y-111765000D03*
X128955000Y-111765000D03*
X128955000Y-111765000D03*
X128155000Y-111765000D03*
D30*
X127455000Y-111765000D03*
X126455000Y-111765000D03*
X124955000Y-111765000D03*
X123955000Y-111765000D03*
D29*
X123255000Y-111765000D03*
X122455000Y-111765000D03*
D31*
X121385000Y-116860000D03*
D32*
X121385000Y-112680000D03*
X130025000Y-112680000D03*
D31*
X130025000Y-116860000D03*
%TD*%
D12*
%TO.C,J10*%
X162535000Y-83000000D03*
D13*
X159995000Y-83000000D03*
X157455000Y-83000000D03*
X154915000Y-83000000D03*
%TD*%
D33*
%TO.C,SW1*%
X110295000Y-113560000D03*
X110295000Y-118060000D03*
X118255000Y-118060000D03*
X118255000Y-113560000D03*
%TD*%
D22*
%TO.C,R12*%
X114275000Y-77365000D03*
X114275000Y-79190000D03*
%TD*%
D11*
%TO.C,R7*%
X157122500Y-97790000D03*
X155297500Y-97790000D03*
%TD*%
D34*
%TO.C,Q3*%
X134898000Y-101412000D03*
X134898000Y-103312000D03*
X137898000Y-102362000D03*
%TD*%
D35*
%TO.C,L1*%
X182362725Y-81895000D03*
X182362725Y-85745000D03*
%TD*%
D36*
%TO.C,JP1*%
X133325000Y-88110000D03*
D37*
X133325000Y-86810000D03*
D38*
X133325000Y-85510000D03*
%TD*%
D19*
%TO.C,R17*%
X138334125Y-83063916D03*
X138334125Y-81238916D03*
%TD*%
D39*
%TO.C,C9*%
X115698500Y-111365000D03*
X117423500Y-111365000D03*
%TD*%
D33*
%TO.C,SW2*%
X141140000Y-99010000D03*
X133180000Y-99010000D03*
X141140000Y-94510000D03*
X133180000Y-94510000D03*
%TD*%
D17*
%TO.C,J1*%
X146050000Y-113324000D03*
D18*
X151130000Y-113324000D03*
%TD*%
D40*
%TO.C,C2*%
X175278000Y-98806000D03*
X171178000Y-98806000D03*
%TD*%
D24*
%TO.C,H4*%
X189500000Y-116000000D03*
%TD*%
D41*
%TO.C,R4*%
X183991663Y-105123469D03*
X189916663Y-105123469D03*
%TD*%
D42*
%TO.C,L2*%
X177800000Y-81280000D03*
X177800000Y-86280000D03*
%TD*%
D34*
%TO.C,Q2*%
X162282000Y-98740000D03*
X162282000Y-96840000D03*
X159282000Y-97790000D03*
%TD*%
D43*
%TO.C,D1*%
X181356000Y-97380000D03*
X181356000Y-90580000D03*
%TD*%
D19*
%TO.C,R14*%
X129515000Y-109102500D03*
X129515000Y-107277500D03*
%TD*%
D22*
%TO.C,R9*%
X121895000Y-77365000D03*
X121895000Y-79190000D03*
%TD*%
D36*
%TO.C,JP2*%
X139675000Y-88110000D03*
D37*
X139675000Y-86810000D03*
D38*
X139675000Y-85510000D03*
%TD*%
D44*
%TO.C,C5*%
X110740500Y-110948000D03*
X108665500Y-110948000D03*
%TD*%
D45*
%TO.C,C6*%
X110565500Y-108916000D03*
X108840500Y-108916000D03*
%TD*%
D22*
%TO.C,R10*%
X119355000Y-77365000D03*
X119355000Y-79190000D03*
%TD*%
D17*
%TO.C,J4*%
X176530000Y-113284000D03*
D18*
X181610000Y-113284000D03*
%TD*%
D10*
%TO.C,D5*%
X116815000Y-82517500D03*
X116815000Y-80942500D03*
%TD*%
D45*
%TO.C,C7*%
X162306000Y-102870000D03*
X160581000Y-102870000D03*
%TD*%
D24*
%TO.C,H1*%
X189500000Y-79000000D03*
%TD*%
%TO.C,H2*%
X104535000Y-116000000D03*
%TD*%
D10*
%TO.C,D6*%
X114275000Y-82517500D03*
X114275000Y-80942500D03*
%TD*%
D12*
%TO.C,J6*%
X142850000Y-77920000D03*
D13*
X145390000Y-77920000D03*
X147930000Y-77920000D03*
X150470000Y-77920000D03*
%TD*%
D40*
%TO.C,C4*%
X175258500Y-104902000D03*
X171158500Y-104902000D03*
%TD*%
D22*
%TO.C,R11*%
X116815000Y-77365000D03*
X116815000Y-79190000D03*
%TD*%
D46*
%TO.C,C8*%
X113867500Y-111365000D03*
X113867500Y-109640000D03*
%TD*%
D22*
%TO.C,R13*%
X111735000Y-77365000D03*
X111735000Y-79190000D03*
%TD*%
D47*
%TO.C,U1*%
X109115000Y-106960000D03*
X110385000Y-106960000D03*
X111655000Y-106960000D03*
X112925000Y-106960000D03*
X114195000Y-106960000D03*
X115465000Y-106960000D03*
X116735000Y-106960000D03*
X118005000Y-106960000D03*
X119275000Y-106960000D03*
X120545000Y-106960000D03*
X121815000Y-106960000D03*
X123085000Y-106960000D03*
X124355000Y-106960000D03*
X125625000Y-106960000D03*
D48*
X126625000Y-104175000D03*
X126625000Y-102905000D03*
X126625000Y-101635000D03*
X126625000Y-100365000D03*
X126625000Y-99095000D03*
X126625000Y-97825000D03*
X126625000Y-96555000D03*
X126625000Y-95285000D03*
X126625000Y-94015000D03*
X126625000Y-92745000D03*
D47*
X125625000Y-89960000D03*
X124355000Y-89960000D03*
X123085000Y-89960000D03*
X121815000Y-89960000D03*
X120545000Y-89960000D03*
X119275000Y-89960000D03*
X118005000Y-89960000D03*
X116735000Y-89960000D03*
X115465000Y-89960000D03*
X114195000Y-89960000D03*
X112925000Y-89960000D03*
X111655000Y-89960000D03*
X110385000Y-89960000D03*
X109115000Y-89960000D03*
D49*
X116615000Y-99460000D03*
%TD*%
M02*
