M48
; DRILL file {KiCad (6.0.7)} date Thu Nov  3 13:34:33 2022
; FORMAT={-:-/ absolute / inch / decimal}
; #@! TF.CreationDate,2022-11-03T13:34:33+01:00
; #@! TF.GenerationSoftware,Kicad,Pcbnew,(6.0.7)
; #@! TF.FileFunction,Plated,1,2,PTH
FMAT,2
INCH
; #@! TA.AperFunction,Plated,PTH,ViaDrill
T1C0.0157
; #@! TA.AperFunction,Plated,PTH,ComponentDrill
T2C0.0236
; #@! TA.AperFunction,Plated,PTH,ComponentDrill
T3C0.0394
; #@! TA.AperFunction,Plated,PTH,ComponentDrill
T4C0.0512
; #@! TA.AperFunction,Plated,PTH,ComponentDrill
T5C0.0630
; #@! TA.AperFunction,Plated,PTH,ComponentDrill
T6C0.0984
%
G90
G05
T1
X4.1Y-3.25
X4.2Y-3.25
X4.25Y-4.65
X4.279Y-4.4294
X4.279Y-4.4794
X4.279Y-4.5494
X4.299Y-3.2777
X4.299Y-3.3277
X4.3Y-3.05
X4.3Y-3.15
X4.35Y-3.65
X4.35Y-4.1
X4.36Y-3.92
X4.407Y-3.3519
X4.419Y-4.531
X4.429Y-4.3917
X4.449Y-3.3677
X4.449Y-4.3094
X4.45Y-3.65
X4.4704Y-4.648
X4.499Y-3.3677
X4.5Y-4.1
X4.5304Y-4.648
X4.5476Y-4.2671
X4.549Y-3.3677
X4.5957Y-4.2709
X4.6Y-3.65
X4.653Y-4.2663
X4.6654Y-4.4193
X4.749Y-3.3677
X4.75Y-3.65
X4.75Y-4.3
X4.809Y-4.3394
X4.82Y-4.14
X4.849Y-4.3394
X4.8492Y-4.6008
X4.85Y-3.65
X4.85Y-3.7
X4.85Y-3.85
X4.85Y-3.95
X4.8917Y-3.4252
X4.9Y-4.3
X4.9923Y-3.1577
X5.049Y-3.2077
X5.0492Y-4.6008
X5.0517Y-4.2999
X5.0729Y-3.8394
X5.0838Y-3.8832
X5.0859Y-3.9517
X5.1Y-3.14
X5.1Y-3.6
X5.1Y-4.14
X5.1284Y-3.2091
X5.14Y-3.33
X5.14Y-3.66
X5.1493Y-3.4123
X5.169Y-4.3994
X5.18Y-4.14
X5.1813Y-3.4348
X5.2Y-4.4494
X5.2Y-4.65
X5.24Y-4.07
X5.25Y-4.35
X5.3Y-3.6
X5.31Y-3.33
X5.31Y-4.11
X5.37Y-3.14
X5.3835Y-3.898
X5.4172Y-3.1585
X5.4425Y-3.898
X5.5356Y-3.1661
X5.54Y-4.01
X5.54Y-4.08
X5.55Y-3.6
X5.5906Y-3.189
X5.599Y-3.4177
X5.6Y-4.28
X5.64Y-3.87
X5.65Y-3.2
X5.68Y-3.91
X5.7Y-3.55
X5.7283Y-3.4154
X5.7315Y-3.5962
X5.7579Y-3.4449
X5.7874Y-3.4744
X5.8Y-3.91
X5.85Y-4.13
X5.86Y-3.72
X5.86Y-4.27
X5.87Y-3.89
X5.8709Y-3.4295
X5.9Y-4.13
X5.92Y-3.72
X5.94Y-3.89
X5.95Y-4.13
X6.0Y-3.25
X6.0Y-3.3
X6.0Y-3.45
X6.0Y-4.27
X6.01Y-3.62
X6.03Y-3.73
X6.05Y-3.67
X6.055Y-3.755
X6.08Y-3.78
X6.15Y-3.65
X6.18Y-3.8
X6.22Y-4.14
X6.24Y-4.27
X6.25Y-3.55
X6.25Y-3.65
X6.2598Y-4.6063
X6.27Y-3.93
X6.27Y-4.05
X6.27Y-4.14
X6.3Y-3.35
X6.32Y-3.79
X6.35Y-3.65
X6.36Y-3.47
X6.41Y-3.77
X6.42Y-4.13
X6.43Y-4.27
X6.4665Y-3.4
X6.47Y-3.9
X6.48Y-3.8
X6.4961Y-3.0315
X6.4961Y-3.3071
X6.4961Y-3.5039
X6.4961Y-4.3701
X6.4961Y-4.6063
T3
X4.949Y-3.0677
X5.049Y-3.0677
X5.149Y-3.0677
X5.249Y-3.0677
X5.349Y-3.0677
X5.449Y-3.0677
X5.624Y-3.0677
X5.624Y-3.2677
X5.724Y-3.0677
X5.724Y-3.2677
X5.824Y-3.0677
X5.824Y-3.2677
X5.924Y-3.0677
X5.924Y-3.2677
X6.099Y-3.0677
X6.099Y-3.2677
X6.199Y-3.0677
X6.199Y-3.2677
X6.299Y-3.0677
X6.299Y-3.2677
X6.399Y-3.0677
X6.399Y-3.2677
T4
X7.0Y-3.2
X7.0Y-3.3969
T5
X5.35Y-4.4616
X5.55Y-4.4616
X5.75Y-4.4616
X5.95Y-4.4616
X6.15Y-4.4616
X6.35Y-4.4616
X6.95Y-4.46
X7.15Y-4.46
T6
X4.1156Y-3.1102
X4.1156Y-4.5669
X7.4606Y-3.1102
X7.4606Y-4.5669
T2
G00X4.7789Y-4.4146
M15
G01X4.7789Y-4.4579
M16
G05
G00X4.7789Y-4.589
M15
G01X4.7789Y-4.6126
M16
G05
G00X5.1191Y-4.4146
M15
G01X5.1191Y-4.4579
M16
G05
G00X5.1191Y-4.589
M15
G01X5.1191Y-4.6126
M16
G05
T0
M30
