%TF.GenerationSoftware,KiCad,Pcbnew,(6.0.7)*%
%TF.CreationDate,2022-11-03T13:34:30+01:00*%
%TF.ProjectId,opengeiger_ROUND,6f70656e-6765-4696-9765-725f524f554e,rev?*%
%TF.SameCoordinates,Original*%
%TF.FileFunction,Soldermask,Bot*%
%TF.FilePolarity,Negative*%
%FSLAX46Y46*%
G04 Gerber Fmt 4.6, Leading zero omitted, Abs format (unit mm)*
G04 Created by KiCad (PCBNEW (6.0.7)) date 2022-11-03 13:34:30*
%MOMM*%
%LPD*%
G01*
G04 APERTURE LIST*
G04 Aperture macros list*
%AMRoundRect*
0 Rectangle with rounded corners*
0 $1 Rounding radius*
0 $2 $3 $4 $5 $6 $7 $8 $9 X,Y pos of 4 corners*
0 Add a 4 corners polygon primitive as box body*
4,1,4,$2,$3,$4,$5,$6,$7,$8,$9,$2,$3,0*
0 Add four circle primitives for the rounded corners*
1,1,$1+$1,$2,$3*
1,1,$1+$1,$4,$5*
1,1,$1+$1,$6,$7*
1,1,$1+$1,$8,$9*
0 Add four rect primitives between the rounded corners*
20,1,$1+$1,$2,$3,$4,$5,0*
20,1,$1+$1,$4,$5,$6,$7,0*
20,1,$1+$1,$6,$7,$8,$9,0*
20,1,$1+$1,$8,$9,$2,$3,0*%
G04 Aperture macros list end*
%ADD10R,1.700000X1.700000*%
%ADD11O,1.700000X1.700000*%
%ADD12RoundRect,0.305556X-0.794444X-1.494444X0.794444X-1.494444X0.794444X1.494444X-0.794444X1.494444X0*%
%ADD13O,2.200000X3.600000*%
%ADD14C,5.000000*%
%ADD15C,0.650000*%
%ADD16O,1.000000X1.600000*%
%ADD17O,1.000000X2.100000*%
%ADD18C,2.600000*%
G04 APERTURE END LIST*
D10*
%TO.C,J9*%
X142850000Y-83000000D03*
D11*
X145390000Y-83000000D03*
X147930000Y-83000000D03*
X150470000Y-83000000D03*
%TD*%
D12*
%TO.C,J2*%
X156210000Y-113324000D03*
D13*
X161290000Y-113324000D03*
%TD*%
D12*
%TO.C,J7*%
X135890000Y-113324000D03*
D13*
X140970000Y-113324000D03*
%TD*%
D10*
%TO.C,J3*%
X125705000Y-77920000D03*
D11*
X128245000Y-77920000D03*
X130785000Y-77920000D03*
X133325000Y-77920000D03*
X135865000Y-77920000D03*
X138405000Y-77920000D03*
%TD*%
D14*
%TO.C,H3*%
X104535000Y-79000000D03*
%TD*%
D10*
%TO.C,J5*%
X162535000Y-77920000D03*
D11*
X159995000Y-77920000D03*
X157455000Y-77920000D03*
X154915000Y-77920000D03*
%TD*%
D15*
%TO.C,J8*%
X128595000Y-113210000D03*
X122815000Y-113210000D03*
D16*
X121385000Y-116860000D03*
D17*
X121385000Y-112680000D03*
X130025000Y-112680000D03*
D16*
X130025000Y-116860000D03*
%TD*%
D10*
%TO.C,J10*%
X162535000Y-83000000D03*
D11*
X159995000Y-83000000D03*
X157455000Y-83000000D03*
X154915000Y-83000000D03*
%TD*%
D12*
%TO.C,J1*%
X146050000Y-113324000D03*
D13*
X151130000Y-113324000D03*
%TD*%
D14*
%TO.C,H4*%
X189500000Y-116000000D03*
%TD*%
D18*
%TO.C,L2*%
X177800000Y-81280000D03*
X177800000Y-86280000D03*
%TD*%
D12*
%TO.C,J4*%
X176530000Y-113284000D03*
D13*
X181610000Y-113284000D03*
%TD*%
D14*
%TO.C,H1*%
X189500000Y-79000000D03*
%TD*%
%TO.C,H2*%
X104535000Y-116000000D03*
%TD*%
D10*
%TO.C,J6*%
X142850000Y-77920000D03*
D11*
X145390000Y-77920000D03*
X147930000Y-77920000D03*
X150470000Y-77920000D03*
%TD*%
M02*
