%TF.GenerationSoftware,KiCad,Pcbnew,(6.0.7)*%
%TF.CreationDate,2022-11-03T13:34:30+01:00*%
%TF.ProjectId,opengeiger_ROUND,6f70656e-6765-4696-9765-725f524f554e,rev?*%
%TF.SameCoordinates,Original*%
%TF.FileFunction,Paste,Top*%
%TF.FilePolarity,Positive*%
%FSLAX46Y46*%
G04 Gerber Fmt 4.6, Leading zero omitted, Abs format (unit mm)*
G04 Created by KiCad (PCBNEW (6.0.7)) date 2022-11-03 13:34:30*
%MOMM*%
%LPD*%
G01*
G04 APERTURE LIST*
G04 Aperture macros list*
%AMRoundRect*
0 Rectangle with rounded corners*
0 $1 Rounding radius*
0 $2 $3 $4 $5 $6 $7 $8 $9 X,Y pos of 4 corners*
0 Add a 4 corners polygon primitive as box body*
4,1,4,$2,$3,$4,$5,$6,$7,$8,$9,$2,$3,0*
0 Add four circle primitives for the rounded corners*
1,1,$1+$1,$2,$3*
1,1,$1+$1,$4,$5*
1,1,$1+$1,$6,$7*
1,1,$1+$1,$8,$9*
0 Add four rect primitives between the rounded corners*
20,1,$1+$1,$2,$3,$4,$5,0*
20,1,$1+$1,$4,$5,$6,$7,0*
20,1,$1+$1,$6,$7,$8,$9,0*
20,1,$1+$1,$8,$9,$2,$3,0*%
G04 Aperture macros list end*
%ADD10RoundRect,0.218750X0.256250X-0.218750X0.256250X0.218750X-0.256250X0.218750X-0.256250X-0.218750X0*%
%ADD11RoundRect,0.237500X0.250000X0.237500X-0.250000X0.237500X-0.250000X-0.237500X0.250000X-0.237500X0*%
%ADD12RoundRect,0.250000X-1.425000X0.362500X-1.425000X-0.362500X1.425000X-0.362500X1.425000X0.362500X0*%
%ADD13RoundRect,0.250000X-0.475000X0.337500X-0.475000X-0.337500X0.475000X-0.337500X0.475000X0.337500X0*%
%ADD14RoundRect,0.250000X0.475000X-0.337500X0.475000X0.337500X-0.475000X0.337500X-0.475000X-0.337500X0*%
%ADD15RoundRect,0.237500X0.237500X-0.250000X0.237500X0.250000X-0.237500X0.250000X-0.237500X-0.250000X0*%
%ADD16R,2.000000X1.500000*%
%ADD17R,2.000000X3.800000*%
%ADD18RoundRect,0.237500X-0.237500X0.250000X-0.237500X-0.250000X0.237500X-0.250000X0.237500X0.250000X0*%
%ADD19RoundRect,0.237500X-0.250000X-0.237500X0.250000X-0.237500X0.250000X0.237500X-0.250000X0.237500X0*%
%ADD20R,1.500000X2.000000*%
%ADD21R,3.800000X2.000000*%
%ADD22R,2.500000X1.800000*%
%ADD23R,0.600000X1.450000*%
%ADD24R,0.300000X1.450000*%
%ADD25R,1.550000X1.300000*%
%ADD26R,1.900000X0.800000*%
%ADD27R,5.500000X2.150000*%
%ADD28RoundRect,0.237500X-0.300000X-0.237500X0.300000X-0.237500X0.300000X0.237500X-0.300000X0.237500X0*%
%ADD29RoundRect,0.249999X0.450001X1.450001X-0.450001X1.450001X-0.450001X-1.450001X0.450001X-1.450001X0*%
%ADD30RoundRect,0.250000X-0.362500X-1.425000X0.362500X-1.425000X0.362500X1.425000X-0.362500X1.425000X0*%
%ADD31R,3.300000X2.500000*%
%ADD32RoundRect,0.250000X0.337500X0.475000X-0.337500X0.475000X-0.337500X-0.475000X0.337500X-0.475000X0*%
%ADD33RoundRect,0.237500X0.300000X0.237500X-0.300000X0.237500X-0.300000X-0.237500X0.300000X-0.237500X0*%
%ADD34RoundRect,0.237500X0.237500X-0.300000X0.237500X0.300000X-0.237500X0.300000X-0.237500X-0.300000X0*%
%ADD35R,0.900000X2.000000*%
%ADD36R,2.000000X0.900000*%
%ADD37R,5.000000X5.000000*%
G04 APERTURE END LIST*
D10*
%TO.C,D4*%
X119355000Y-82517500D03*
X119355000Y-80942500D03*
%TD*%
D11*
%TO.C,R1*%
X167282500Y-86360000D03*
X165457500Y-86360000D03*
%TD*%
D10*
%TO.C,D3*%
X121895000Y-82517500D03*
X121895000Y-80942500D03*
%TD*%
D12*
%TO.C,R3*%
X179705000Y-99748000D03*
X179705000Y-105673000D03*
%TD*%
D13*
%TO.C,C3*%
X155448000Y-100816500D03*
X155448000Y-102891500D03*
%TD*%
D14*
%TO.C,C1*%
X144018000Y-102891500D03*
X144018000Y-100816500D03*
%TD*%
D15*
%TO.C,R16*%
X139574125Y-83063916D03*
X139574125Y-81238916D03*
%TD*%
D16*
%TO.C,Q1*%
X168300000Y-91440000D03*
X168300000Y-89140000D03*
X168300000Y-93740000D03*
D17*
X174600000Y-91440000D03*
%TD*%
D18*
%TO.C,R5*%
X164592000Y-100941500D03*
X164592000Y-102766500D03*
%TD*%
D19*
%TO.C,R6*%
X160531000Y-100838000D03*
X162356000Y-100838000D03*
%TD*%
D10*
%TO.C,D7*%
X111735000Y-82517500D03*
X111735000Y-80942500D03*
%TD*%
D15*
%TO.C,R15*%
X131064000Y-109102500D03*
X131064000Y-107277500D03*
%TD*%
D19*
%TO.C,R8*%
X115545000Y-109460000D03*
X117370000Y-109460000D03*
%TD*%
D15*
%TO.C,R2*%
X124435000Y-83277500D03*
X124435000Y-81452500D03*
%TD*%
D20*
%TO.C,U2*%
X147560000Y-102718000D03*
D21*
X149860000Y-96418000D03*
D20*
X149860000Y-102718000D03*
X152160000Y-102718000D03*
%TD*%
D22*
%TO.C,D2*%
X128785000Y-83000000D03*
X132785000Y-83000000D03*
%TD*%
D23*
%TO.C,J8*%
X122455000Y-111765000D03*
X123255000Y-111765000D03*
D24*
X124455000Y-111765000D03*
X125455000Y-111765000D03*
X125955000Y-111765000D03*
X126955000Y-111765000D03*
D23*
X128155000Y-111765000D03*
X128955000Y-111765000D03*
X128955000Y-111765000D03*
X128155000Y-111765000D03*
D24*
X127455000Y-111765000D03*
X126455000Y-111765000D03*
X124955000Y-111765000D03*
X123955000Y-111765000D03*
D23*
X123255000Y-111765000D03*
X122455000Y-111765000D03*
%TD*%
D25*
%TO.C,SW1*%
X110295000Y-113560000D03*
X110295000Y-118060000D03*
X118255000Y-118060000D03*
X118255000Y-113560000D03*
%TD*%
D18*
%TO.C,R12*%
X114275000Y-77365000D03*
X114275000Y-79190000D03*
%TD*%
D11*
%TO.C,R7*%
X157122500Y-97790000D03*
X155297500Y-97790000D03*
%TD*%
D26*
%TO.C,Q3*%
X134898000Y-101412000D03*
X134898000Y-103312000D03*
X137898000Y-102362000D03*
%TD*%
D27*
%TO.C,L1*%
X182362725Y-81895000D03*
X182362725Y-85745000D03*
%TD*%
D15*
%TO.C,R17*%
X138334125Y-83063916D03*
X138334125Y-81238916D03*
%TD*%
D28*
%TO.C,C9*%
X115698500Y-111365000D03*
X117423500Y-111365000D03*
%TD*%
D25*
%TO.C,SW2*%
X141140000Y-99010000D03*
X133180000Y-99010000D03*
X141140000Y-94510000D03*
X133180000Y-94510000D03*
%TD*%
D29*
%TO.C,C2*%
X175278000Y-98806000D03*
X171178000Y-98806000D03*
%TD*%
D30*
%TO.C,R4*%
X183991663Y-105123469D03*
X189916663Y-105123469D03*
%TD*%
D26*
%TO.C,Q2*%
X162282000Y-98740000D03*
X162282000Y-96840000D03*
X159282000Y-97790000D03*
%TD*%
D31*
%TO.C,D1*%
X181356000Y-97380000D03*
X181356000Y-90580000D03*
%TD*%
D15*
%TO.C,R14*%
X129515000Y-109102500D03*
X129515000Y-107277500D03*
%TD*%
D18*
%TO.C,R9*%
X121895000Y-77365000D03*
X121895000Y-79190000D03*
%TD*%
D32*
%TO.C,C5*%
X110740500Y-110948000D03*
X108665500Y-110948000D03*
%TD*%
D33*
%TO.C,C6*%
X110565500Y-108916000D03*
X108840500Y-108916000D03*
%TD*%
D18*
%TO.C,R10*%
X119355000Y-77365000D03*
X119355000Y-79190000D03*
%TD*%
D10*
%TO.C,D5*%
X116815000Y-82517500D03*
X116815000Y-80942500D03*
%TD*%
D33*
%TO.C,C7*%
X162306000Y-102870000D03*
X160581000Y-102870000D03*
%TD*%
D10*
%TO.C,D6*%
X114275000Y-82517500D03*
X114275000Y-80942500D03*
%TD*%
D29*
%TO.C,C4*%
X175258500Y-104902000D03*
X171158500Y-104902000D03*
%TD*%
D18*
%TO.C,R11*%
X116815000Y-77365000D03*
X116815000Y-79190000D03*
%TD*%
D34*
%TO.C,C8*%
X113867500Y-111365000D03*
X113867500Y-109640000D03*
%TD*%
D18*
%TO.C,R13*%
X111735000Y-77365000D03*
X111735000Y-79190000D03*
%TD*%
D35*
%TO.C,U1*%
X109115000Y-106960000D03*
X110385000Y-106960000D03*
X111655000Y-106960000D03*
X112925000Y-106960000D03*
X114195000Y-106960000D03*
X115465000Y-106960000D03*
X116735000Y-106960000D03*
X118005000Y-106960000D03*
X119275000Y-106960000D03*
X120545000Y-106960000D03*
X121815000Y-106960000D03*
X123085000Y-106960000D03*
X124355000Y-106960000D03*
X125625000Y-106960000D03*
D36*
X126625000Y-104175000D03*
X126625000Y-102905000D03*
X126625000Y-101635000D03*
X126625000Y-100365000D03*
X126625000Y-99095000D03*
X126625000Y-97825000D03*
X126625000Y-96555000D03*
X126625000Y-95285000D03*
X126625000Y-94015000D03*
X126625000Y-92745000D03*
D35*
X125625000Y-89960000D03*
X124355000Y-89960000D03*
X123085000Y-89960000D03*
X121815000Y-89960000D03*
X120545000Y-89960000D03*
X119275000Y-89960000D03*
X118005000Y-89960000D03*
X116735000Y-89960000D03*
X115465000Y-89960000D03*
X114195000Y-89960000D03*
X112925000Y-89960000D03*
X111655000Y-89960000D03*
X110385000Y-89960000D03*
X109115000Y-89960000D03*
D37*
X116615000Y-99460000D03*
%TD*%
M02*
